<?xml version="1.0" encoding="utf-8"?>
<svg viewBox="0 0 500 500" xmlns="http://www.w3.org/2000/svg">
  <path d="M 166.101 72.092 C 167.7 73.435 169.2 74.864 170.673 76.344 C 170.864 76.534 171.054 76.723 171.249 76.918 C 172.15 77.819 173.021 78.73 173.849 79.699 C 175.299 81.381 176.905 82.916 178.484 84.475 C 181.971 87.92 181.971 87.92 183.494 89.707 C 184.792 91.157 186.209 92.502 187.593 93.869 C 191.081 97.315 191.081 97.315 192.602 99.101 C 193.901 100.55 195.318 101.896 196.702 103.263 C 200.19 106.709 200.19 106.709 201.712 108.495 C 203.011 109.945 204.427 111.29 205.812 112.657 C 209.299 116.102 209.299 116.102 210.822 117.889 C 212.12 119.339 213.537 120.684 214.921 122.051 C 218.454 125.541 218.454 125.541 219.986 127.34 C 221.194 128.699 222.538 129.94 223.847 131.2 C 224.069 131.418 224.289 131.635 224.517 131.859 C 224.718 132.053 224.918 132.247 225.124 132.448 C 225.621 133.041 225.733 133.405 225.88 134.15 C 226.387 134.768 226.387 134.768 227.02 135.395 C 232.416 141.238 234.951 149.126 234.671 157.009 C 234.265 163.765 231.845 170.351 227.304 175.427 C 227.116 175.64 226.927 175.853 226.733 176.073 C 225.189 177.806 223.588 179.467 221.943 181.104 C 221.673 181.374 221.403 181.644 221.134 181.913 C 220.412 182.636 219.687 183.358 218.964 184.079 C 218.204 184.837 217.446 185.596 216.687 186.355 C 215.254 187.787 213.82 189.219 212.386 190.649 C 210.752 192.28 209.119 193.912 207.485 195.544 C 204.129 198.898 200.771 202.25 197.414 205.601 C 197.825 206.86 198.295 208.046 198.854 209.248 C 198.981 209.522 198.981 209.522 199.11 209.803 C 199.385 210.395 199.662 210.987 199.941 211.579 C 200.083 211.883 200.083 211.883 200.23 212.195 C 201.79 215.516 203.446 218.766 205.259 221.958 C 205.677 222.693 206.089 223.432 206.5 224.172 C 210.619 231.529 215.339 238.486 220.472 245.169 C 220.603 245.34 220.734 245.512 220.869 245.687 C 223.614 249.259 226.548 252.657 229.581 255.987 C 229.8 256.233 230.02 256.477 230.245 256.73 C 231.934 258.606 233.689 260.409 235.47 262.196 C 235.696 262.424 235.924 262.651 236.156 262.887 C 237.366 264.092 238.596 265.252 239.89 266.366 C 240.578 266.959 241.244 267.575 241.911 268.192 C 243.182 269.351 244.488 270.45 245.828 271.529 C 246.587 272.152 247.328 272.789 248.068 273.435 C 250.179 275.273 252.375 276.963 254.628 278.62 C 255.189 279.035 255.746 279.456 256.302 279.878 C 260.826 283.314 265.484 286.548 270.289 289.578 C 270.51 289.718 270.732 289.858 270.96 290.003 C 276.53 293.521 282.211 296.835 288.063 299.861 C 288.234 299.95 288.405 300.039 288.583 300.131 C 290.223 300.978 291.869 301.798 293.551 302.56 C 293.833 302.688 294.115 302.815 294.405 302.947 C 294.726 303.093 294.726 303.093 295.055 303.241 C 295.207 303.086 295.361 302.932 295.519 302.773 C 299.263 298.997 303.01 295.227 306.763 291.459 C 308.576 289.638 310.39 287.816 312.199 285.989 C 313.779 284.396 315.36 282.806 316.945 281.218 C 317.782 280.378 318.619 279.537 319.452 278.694 C 320.239 277.897 321.029 277.104 321.822 276.313 C 322.11 276.025 322.397 275.735 322.682 275.445 C 328.433 269.588 336.278 266.238 344.484 266.127 C 352.55 266.14 360.43 268.017 366.506 273.636 C 367.19 274.341 367.855 275.062 368.521 275.783 C 371.186 278.636 373.944 281.391 376.711 284.144 C 377.263 284.695 377.815 285.246 378.367 285.797 C 379.545 286.971 380.723 288.147 381.902 289.321 C 383.769 291.181 385.634 293.042 387.498 294.903 C 388.139 295.544 388.781 296.183 389.421 296.823 C 389.661 297.062 389.661 297.062 389.906 297.307 C 391.719 299.116 393.532 300.925 395.345 302.734 C 395.51 302.9 395.676 303.064 395.846 303.234 C 398.531 305.913 401.216 308.59 403.902 311.266 C 406.672 314.026 409.439 316.787 412.205 319.551 C 413.905 321.25 415.607 322.947 417.311 324.642 C 418.478 325.803 419.643 326.967 420.807 328.13 C 421.477 328.801 422.147 329.468 422.819 330.136 C 430.188 337.455 434.935 345.159 435.164 355.815 C 435.089 361.579 433.668 366.842 430.84 371.846 C 430.682 372.129 430.524 372.413 430.361 372.706 C 428.049 376.583 424.443 379.712 421.274 382.886 C 420.835 383.328 420.395 383.769 419.955 384.211 C 418.524 385.647 417.092 387.083 415.66 388.519 C 415.164 389.015 414.668 389.512 414.171 390.009 C 411.841 392.345 409.51 394.681 407.178 397.015 C 404.498 399.699 401.82 402.384 399.143 405.072 C 397.066 407.157 394.987 409.241 392.906 411.323 C 391.667 412.563 390.428 413.803 389.193 415.047 C 388.03 416.217 386.863 417.384 385.696 418.547 C 385.271 418.973 384.846 419.399 384.424 419.826 C 381.048 423.232 377.517 426.17 373.319 428.53 C 373.071 428.671 372.822 428.811 372.564 428.956 C 365.552 432.818 357.713 434.998 349.711 435.327 C 349.295 435.345 349.295 435.345 348.871 435.362 C 344.987 435.442 341.058 435.031 337.257 434.241 C 336.965 434.181 336.965 434.181 336.668 434.12 C 332.074 433.1 327.795 431.454 323.467 429.633 C 322.883 429.39 322.299 429.146 321.715 428.902 C 320.038 428.2 318.364 427.495 316.69 426.787 C 316.47 426.694 316.25 426.601 316.023 426.505 C 306.824 422.614 297.774 418.402 288.816 413.984 C 288.23 413.696 287.644 413.408 287.057 413.119 C 282.986 411.115 278.949 409.065 274.979 406.866 C 273.56 406.08 272.13 405.315 270.699 404.553 C 267.13 402.648 263.62 400.662 260.141 398.6 C 259.275 398.087 258.409 397.579 257.541 397.07 C 253.291 394.579 249.096 392.033 244.987 389.31 C 243.644 388.423 242.277 387.583 240.897 386.755 C 238.41 385.257 236.023 383.628 233.64 381.971 C 233.033 381.55 232.424 381.131 231.814 380.715 C 229.058 378.829 226.324 376.915 223.603 374.978 C 223.4 374.832 223.198 374.688 222.988 374.54 C 219.434 372.008 215.96 369.379 212.501 366.722 C 212.148 366.452 211.794 366.181 211.441 365.911 C 208.146 363.387 204.888 360.821 201.684 358.182 C 201.174 357.767 200.665 357.352 200.154 356.937 C 198.529 355.608 196.927 354.251 195.328 352.892 C 194.851 352.488 194.373 352.085 193.895 351.684 C 192.22 350.275 190.566 348.848 188.947 347.375 C 188.371 346.856 187.789 346.343 187.202 345.835 C 186.087 344.864 185 343.867 183.913 342.866 C 182.988 342.014 182.056 341.173 181.117 340.337 C 180.076 339.404 179.079 338.441 178.108 337.435 C 177.584 336.925 177.05 336.455 176.495 335.981 C 175.018 334.691 173.64 333.31 172.256 331.922 C 171.976 331.644 171.697 331.365 171.418 331.086 C 170.836 330.505 170.256 329.923 169.675 329.342 C 168.936 328.601 168.197 327.862 167.457 327.124 C 166.881 326.549 166.306 325.974 165.731 325.399 C 165.328 324.995 164.925 324.592 164.521 324.189 C 163.236 322.901 161.989 321.599 160.808 320.215 C 160.277 319.602 159.708 319.035 159.127 318.471 C 158.178 317.535 157.289 316.574 156.423 315.563 C 155.837 314.895 155.234 314.244 154.627 313.593 C 153.195 312.061 151.836 310.498 150.523 308.862 C 149.813 308.006 149.067 307.187 148.309 306.373 C 147.104 305.076 145.967 303.739 144.856 302.36 C 144.091 301.423 143.301 300.509 142.508 299.594 C 141.241 298.126 140.023 296.628 138.833 295.096 C 137.843 293.821 136.826 292.57 135.802 291.322 C 134.296 289.48 132.857 287.599 131.44 285.688 C 130.571 284.52 129.687 283.363 128.801 282.207 C 126.98 279.83 125.186 277.441 123.466 274.989 C 123.088 274.449 122.706 273.91 122.324 273.371 C 121.601 272.349 120.879 271.324 120.158 270.299 C 119.695 269.644 119.231 268.991 118.767 268.337 C 116.033 264.478 113.443 260.53 110.876 256.556 C 110.685 256.26 110.492 255.965 110.295 255.661 C 96.199 233.91 83.9 210.924 64.835 143.132 C 65.841 138.74 67.462 134.691 69.598 130.734 C 69.76 130.432 69.921 130.131 70.087 129.819 C 71.885 126.595 74.161 123.799 76.734 121.169 C 77.327 120.553 77.806 120.049 78.102 119.239 C 78.496 118.324 79.004 117.82 79.717 117.126 C 79.976 116.871 80.235 116.617 80.501 116.354 C 80.775 116.088 81.05 115.823 81.324 115.558 C 83.402 113.553 83.402 113.553 85.35 111.427 C 87.026 109.464 88.922 107.694 90.755 105.882 C 93.217 103.448 93.217 103.448 95.532 100.878 C 97.03 99.205 98.675 97.659 100.272 96.082 C 102.434 93.967 102.434 93.967 104.471 91.735 C 106.079 89.846 107.901 88.145 109.665 86.404 C 111.259 84.827 112.838 83.262 114.293 81.556 C 118.427 76.897 122.96 71.873 128.525 68.961 C 128.739 68.845 128.953 68.728 129.173 68.608 C 141.167 62.166 155.459 63.696 166.101 72.092 Z M 141.05 95.15 C 140.757 95.483 140.468 95.82 140.181 96.158 C 138.956 97.565 137.642 98.873 136.318 100.185 C 136.06 100.442 135.802 100.699 135.536 100.964 C 134.58 101.916 133.622 102.867 132.664 103.818 C 131.722 104.753 130.782 105.689 129.842 106.626 C 129.597 106.869 129.352 107.111 129.099 107.361 C 127.89 108.565 126.734 109.79 125.622 111.085 C 124.609 112.224 123.515 113.284 122.431 114.357 C 122.053 114.732 122.053 114.732 121.669 115.116 C 120.737 116.045 119.803 116.971 118.869 117.899 C 117.95 118.81 117.032 119.723 116.114 120.637 C 115.876 120.874 115.638 121.109 115.392 121.353 C 114.376 122.365 113.38 123.379 112.446 124.466 C 111.265 125.839 109.982 127.103 108.695 128.378 C 108.3 128.771 107.904 129.164 107.51 129.557 C 106.824 130.24 106.136 130.923 105.45 131.606 C 104.627 132.422 103.804 133.239 102.984 134.056 C 102.475 134.564 101.965 135.07 101.454 135.576 C 100.165 136.859 98.95 138.165 97.781 139.558 C 97.552 139.775 97.323 139.993 97.087 140.216 C 93.893 143.566 92.62 147.607 92.55 152.154 C 92.54 152.407 92.529 152.658 92.518 152.918 C 92.462 157.335 94.526 161.681 96.109 165.73 C 96.298 166.22 96.49 166.711 96.68 167.204 C 98.203 171.117 99.798 174.994 101.482 178.842 C 101.611 179.14 101.74 179.436 101.873 179.742 C 106.471 190.299 111.409 200.749 117.003 210.817 C 117.446 211.622 117.882 212.43 118.315 213.241 C 120.489 217.297 122.759 221.285 125.108 225.243 C 125.286 225.541 125.462 225.841 125.645 226.148 C 127.822 229.813 130.033 233.451 132.332 237.043 C 132.846 237.848 133.357 238.656 133.87 239.464 C 136.376 243.414 138.954 247.304 141.619 251.148 C 141.874 251.515 141.874 251.515 142.134 251.889 C 145.571 256.844 149.095 261.722 152.765 266.509 C 153.584 267.577 154.391 268.653 155.191 269.736 C 156.991 272.163 158.896 274.493 160.829 276.814 C 161.39 277.492 161.941 278.179 162.489 278.867 C 164.63 281.555 166.833 284.185 169.076 286.787 C 169.511 287.293 169.943 287.802 170.375 288.309 C 172.056 290.291 173.779 292.225 175.551 294.127 C 176.257 294.886 176.955 295.654 177.648 296.428 C 180.637 299.759 180.637 299.759 183.764 302.96 C 184.285 303.491 184.771 304.036 185.255 304.601 C 186.246 305.742 187.286 306.82 188.357 307.886 C 188.545 308.074 188.732 308.263 188.925 308.456 C 189.32 308.849 189.713 309.243 190.108 309.636 C 190.705 310.233 191.301 310.83 191.897 311.427 C 192.282 311.813 192.669 312.198 193.054 312.583 C 193.229 312.758 193.404 312.934 193.585 313.115 C 194.658 314.183 195.765 315.197 196.914 316.184 C 197.588 316.773 198.213 317.404 198.837 318.045 C 199.825 319.043 200.831 319.987 201.898 320.899 C 202.564 321.483 203.21 322.082 203.857 322.686 C 205.396 324.123 206.965 325.49 208.607 326.809 C 209.407 327.469 210.173 328.159 210.936 328.861 C 212.193 330.017 213.487 331.108 214.815 332.181 C 215.698 332.9 216.564 333.637 217.429 334.377 C 219.19 335.875 220.999 337.305 222.825 338.724 C 223.301 339.095 223.773 339.468 224.246 339.843 C 228.676 343.348 233.176 346.756 237.772 350.041 C 238.431 350.514 239.087 350.991 239.744 351.468 C 240.078 351.711 240.078 351.711 240.419 351.959 C 240.836 352.262 241.252 352.565 241.669 352.87 C 243.094 353.903 244.551 354.886 246.017 355.859 C 246.99 356.503 247.959 357.153 248.927 357.802 C 262.902 367.164 277.347 375.638 292.208 383.517 C 292.644 383.749 292.644 383.749 293.089 383.985 C 296.793 385.953 300.534 387.819 304.329 389.605 C 305.22 390.026 306.11 390.451 306.998 390.877 C 315.66 395.029 324.445 398.859 333.325 402.518 C 333.586 402.627 333.847 402.735 334.117 402.847 C 341.309 405.823 348.592 408.452 356.258 405.437 C 360.736 403.351 364.075 399.984 367.521 396.539 C 367.961 396.101 368.403 395.661 368.844 395.222 C 370.035 394.038 371.224 392.851 372.413 391.664 C 373.156 390.922 373.899 390.18 374.642 389.439 C 377.235 386.854 379.826 384.267 382.415 381.678 C 384.831 379.264 387.249 376.853 389.67 374.444 C 391.75 372.375 393.827 370.303 395.901 368.228 C 397.14 366.989 398.38 365.752 399.623 364.517 C 400.789 363.358 401.952 362.196 403.112 361.032 C 403.538 360.604 403.967 360.178 404.397 359.753 C 404.981 359.174 405.56 358.591 406.139 358.008 C 406.312 357.839 406.485 357.67 406.663 357.496 C 407.182 356.982 407.182 356.982 407.782 356.19 C 407.708 355.176 407.234 354.681 406.534 353.982 C 406.326 353.772 406.119 353.562 405.904 353.346 C 405.674 353.118 405.443 352.89 405.206 352.654 C 404.962 352.41 404.719 352.166 404.468 351.915 C 403.793 351.237 403.114 350.561 402.436 349.885 C 401.705 349.158 400.976 348.426 400.247 347.696 C 398.817 346.265 397.386 344.836 395.953 343.408 C 394.284 341.745 392.619 340.079 390.953 338.414 C 387.981 335.442 385.005 332.471 382.029 329.502 C 379.142 326.622 376.256 323.74 373.372 320.856 C 373.194 320.679 373.017 320.502 372.834 320.318 C 372.477 319.961 372.119 319.604 371.761 319.246 C 371.585 319.069 371.408 318.894 371.227 318.711 C 371.051 318.536 370.875 318.36 370.694 318.179 C 367.945 315.431 365.195 312.685 362.445 309.938 C 361.449 308.942 360.452 307.947 359.456 306.952 C 357.875 305.373 356.294 303.793 354.711 302.215 C 353.988 301.494 353.265 300.772 352.543 300.05 C 351.76 299.268 350.976 298.486 350.191 297.703 C 349.963 297.475 349.736 297.248 349.502 297.014 C 348.912 296.428 348.318 295.846 347.718 295.271 C 347.556 295.113 347.394 294.956 347.226 294.795 C 346.441 294.062 346.441 294.062 345.429 293.819 C 344.627 294.27 344.017 294.832 343.345 295.463 C 343.196 295.602 343.048 295.741 342.895 295.884 C 341.024 297.649 339.217 299.479 337.41 301.308 C 337.017 301.705 336.624 302.101 336.23 302.497 C 335.391 303.343 334.552 304.19 333.713 305.036 C 332.386 306.375 331.058 307.712 329.729 309.048 C 329.504 309.273 329.279 309.501 329.046 309.734 C 328.587 310.196 328.128 310.658 327.668 311.12 C 324.577 314.226 321.489 317.333 318.407 320.446 C 316.321 322.553 314.232 324.657 312.137 326.757 C 311.031 327.866 309.927 328.978 308.826 330.094 C 307.795 331.14 306.759 332.182 305.719 333.221 C 305.338 333.603 304.958 333.987 304.58 334.372 C 304.066 334.897 303.545 335.415 303.024 335.933 C 302.8 336.165 302.8 336.165 302.572 336.402 C 302.145 336.819 302.145 336.819 301.317 337.401 C 300.099 337.359 299.158 336.969 298.063 336.452 C 297.771 336.315 297.477 336.178 297.176 336.037 C 296.863 335.888 296.55 335.74 296.229 335.586 C 295.558 335.272 294.887 334.957 294.217 334.643 C 293.878 334.484 293.541 334.325 293.192 334.161 C 292.299 333.743 291.403 333.333 290.502 332.928 C 283.835 329.926 277.332 326.667 271.001 323.007 C 270.147 322.517 269.284 322.046 268.419 321.575 C 262.918 318.577 257.577 315.239 252.354 311.781 C 252.008 311.554 251.661 311.326 251.314 311.099 C 242.315 305.172 233.716 298.686 225.514 291.7 C 225.185 291.42 224.855 291.139 224.525 290.859 C 222.545 289.178 220.587 287.48 218.677 285.72 C 218.076 285.173 217.467 284.641 216.85 284.111 C 215.478 282.913 214.194 281.634 212.911 280.344 C 212.68 280.114 212.449 279.884 212.211 279.647 C 210.986 278.421 209.807 277.173 208.676 275.858 C 208.036 275.118 207.368 274.405 206.702 273.69 C 205.245 272.111 203.884 270.471 202.538 268.797 C 202.261 268.46 201.984 268.125 201.707 267.789 C 194.264 258.759 187.666 249.002 181.757 238.907 C 181.629 238.689 181.502 238.471 181.371 238.247 C 179.389 234.852 177.519 231.41 175.719 227.914 C 175.254 227.011 174.783 226.112 174.291 225.223 C 170.836 218.945 167.998 212.269 165.54 205.545 C 165.26 204.782 164.973 204.023 164.685 203.265 C 164.522 202.828 164.359 202.391 164.197 201.954 C 164.124 201.764 164.051 201.572 163.975 201.375 C 163.579 200.274 163.425 199.591 163.824 198.484 C 164.393 197.807 165.056 197.24 165.718 196.655 C 168.088 194.49 170.38 192.256 172.657 189.995 C 172.932 189.723 172.932 189.723 173.211 189.445 C 174.591 188.076 175.968 186.706 177.345 185.336 C 177.549 185.131 177.753 184.929 177.963 184.72 C 179.891 182.801 181.818 180.881 183.743 178.961 C 186.192 176.518 188.645 174.078 191.1 171.642 C 192.836 169.919 194.569 168.194 196.3 166.465 C 197.331 165.436 198.363 164.409 199.397 163.384 C 200.368 162.425 201.334 161.461 202.297 160.493 C 202.651 160.14 203.006 159.788 203.363 159.437 C 203.849 158.958 204.331 158.475 204.811 157.99 C 204.953 157.852 205.095 157.715 205.241 157.573 C 206.223 156.563 206.474 155.758 206.524 154.361 C 206.233 153.737 206.233 153.737 205.709 153.263 C 205.43 152.976 205.43 152.976 205.145 152.684 C 204.943 152.485 204.74 152.288 204.531 152.083 C 204.331 151.878 204.13 151.673 203.923 151.462 C 203.26 150.785 202.59 150.117 201.915 149.45 C 201.671 149.207 201.425 148.962 201.172 148.711 C 200.395 147.936 199.616 147.163 198.837 146.39 C 197.811 145.371 196.785 144.351 195.76 143.331 C 195.527 143.101 195.294 142.87 195.054 142.632 C 193.87 141.453 192.739 140.25 191.65 138.982 C 190.74 137.956 189.76 136.999 188.785 136.035 C 188.565 135.816 188.345 135.598 188.119 135.372 C 187.423 134.679 186.725 133.987 186.027 133.296 C 185.108 132.383 184.188 131.47 183.269 130.556 C 182.958 130.248 182.958 130.248 182.641 129.934 C 181.515 128.814 180.45 127.663 179.414 126.461 C 178.522 125.455 177.563 124.518 176.607 123.572 C 176.393 123.36 176.179 123.147 175.959 122.929 C 175.283 122.256 174.606 121.584 173.929 120.913 C 173.036 120.027 172.143 119.14 171.252 118.253 C 171.05 118.054 170.848 117.855 170.641 117.65 C 169.712 116.724 168.811 115.79 167.955 114.796 C 166.89 113.561 165.748 112.415 164.589 111.269 C 164.369 111.05 164.149 110.833 163.922 110.607 C 163.226 109.914 162.529 109.221 161.832 108.53 C 160.911 107.617 159.992 106.704 159.073 105.79 C 158.762 105.482 158.762 105.482 158.444 105.167 C 157.307 104.036 156.226 102.875 155.179 101.66 C 154.49 100.873 153.767 100.123 153.033 99.379 C 152.882 99.226 152.732 99.074 152.577 98.917 C 152.263 98.598 151.947 98.28 151.633 97.963 C 151.314 97.64 150.996 97.316 150.679 96.991 C 150.215 96.515 149.747 96.044 149.278 95.572 C 149.14 95.427 149.001 95.284 148.857 95.135 C 146.349 92.642 143.653 92.744 141.05 95.15 Z" style="fill: rgb(255, 255, 255);"/>
</svg>