<?xml version="1.0" encoding="utf-8"?>
<svg viewBox="0 0 500 500" xmlns="http://www.w3.org/2000/svg">
  <path d="M 458.009 250 C 458.009 307.44 434.726 359.441 397.084 397.084 C 359.441 434.728 307.44 458.009 250 458.009 C 192.56 458.009 140.56 434.727 102.917 397.085 C 65.273 359.442 41.991 307.44 41.991 250 C 41.991 192.56 65.298 140.582 102.916 102.915 C 140.583 65.295 192.56 41.991 250 41.991 C 307.44 41.991 359.44 65.273 397.083 102.915 C 434.727 140.558 458.009 192.56 458.009 250 Z" style="fill: rgb(138, 15, 0); stroke-width: 12px; stroke-linecap: round;"/>
  <path d="M 285.695 134.327 C 286.105 134.473 286.515 134.619 286.938 134.77 C 296.484 138.221 306.062 142.794 314.238 148.849 C 314.536 149.065 314.834 149.281 315.141 149.503 C 324.502 156.285 333.158 163.731 340.277 172.886 C 340.678 173.384 341.078 173.881 341.49 174.394 C 344.781 178.52 347.61 182.867 350.293 187.408 C 350.504 187.765 350.717 188.122 350.935 188.49 C 354.238 194.108 356.935 199.869 359.307 205.936 C 359.527 206.487 359.527 206.487 359.751 207.051 C 360.349 208.583 360.809 209.785 360.809 211.444 C 361.152 211.341 361.495 211.237 361.849 211.131 C 363.421 210.659 364.994 210.191 366.568 209.723 C 367.107 209.56 367.647 209.397 368.203 209.229 C 371.077 208.38 373.831 207.572 376.834 207.438 C 377.329 207.769 377.825 208.099 378.336 208.44 C 378.76 211.881 377.745 214.412 376.396 217.541 C 376.193 218.025 375.992 218.508 375.785 219.005 C 375.139 220.546 374.485 222.083 373.829 223.62 C 373.403 224.63 372.979 225.641 372.555 226.652 C 371.721 228.641 370.88 230.625 370.034 232.609 C 369.234 234.488 368.458 236.375 367.702 238.273 C 367.527 238.71 367.35 239.146 367.168 239.596 C 366.841 240.408 366.52 241.222 366.204 242.04 C 365.291 244.29 364.478 245.717 362.311 246.999 C 359.751 247.613 357.414 247.243 355.139 245.948 C 354.402 245.464 353.674 244.969 352.954 244.464 C 352.551 244.197 352.151 243.929 351.738 243.654 C 350.872 243.076 350.008 242.495 349.148 241.909 C 347.272 240.64 345.369 239.414 343.468 238.185 C 339.33 235.506 335.215 232.791 331.107 230.066 C 330.73 229.817 330.354 229.568 329.965 229.312 C 329.621 229.083 329.277 228.853 328.922 228.617 C 328.623 228.418 328.325 228.219 328.016 228.015 C 326.703 227.07 326.29 226.659 326.006 225.028 C 326.256 223.463 326.256 223.463 327.425 222.481 C 329.718 221.059 332.299 220.363 334.864 219.582 C 335.363 219.424 335.862 219.265 336.376 219.103 C 340.061 217.954 340.061 217.954 341.78 217.954 C 336.266 203.968 329.476 191.494 319.245 180.398 C 318.978 180.108 318.711 179.818 318.436 179.52 C 313.959 174.726 309.065 170.671 303.722 166.876 C 303.289 166.568 303.289 166.568 302.847 166.254 C 291.247 158.123 277.998 152.702 264.162 149.851 C 263.777 149.768 263.392 149.687 262.995 149.603 C 250.967 147.153 237.09 147.263 225.103 149.851 C 224.383 150.004 224.383 150.004 223.649 150.16 C 216.876 151.644 210.423 153.583 204.071 156.361 C 203.72 156.511 203.368 156.663 203.006 156.818 C 192.67 161.299 182.643 167.473 174.792 175.623 C 174.025 176.391 174.025 176.391 172.522 177.612 C 170.633 179.226 169.098 180.991 167.515 182.901 C 167.296 183.161 167.078 183.42 166.852 183.688 C 148.872 205.138 140.305 232.674 142.708 260.555 C 144.913 281.281 153.266 300.443 166.584 316.386 C 166.942 316.819 167.301 317.253 167.671 317.701 C 168 318.089 168.328 318.478 168.667 318.88 C 170.525 321.567 170.951 324.437 170.519 327.621 C 169.467 330.957 167.552 332.884 164.6 334.689 C 161.883 335.794 158.492 335.476 155.778 334.538 C 154.319 333.506 153.199 332.45 151.991 331.127 C 151.71 330.829 151.429 330.533 151.138 330.226 C 135.07 312.853 125.352 288.824 122.446 265.527 C 122.399 265.15 122.352 264.774 122.303 264.385 C 119.036 234.075 126.661 202.459 144.98 177.894 C 145.317 177.439 145.317 177.439 145.661 176.977 C 149.001 172.518 152.637 168.385 156.498 164.372 C 156.774 164.083 157.049 163.794 157.334 163.496 C 161.442 159.201 165.716 155.355 170.519 151.854 C 170.974 151.521 170.974 151.521 171.437 151.18 C 179.692 145.174 188.581 140.123 198.061 136.33 C 198.477 136.162 198.893 135.994 199.322 135.822 C 226.689 124.942 257.977 124.283 285.695 134.327 Z" style="fill: rgb(255, 255, 255);"/>
  <path d="M 235.556 218.361 C 239.651 222.207 241.593 226.811 241.829 232.375 C 241.953 239.758 239.223 245.836 234.179 251.193 C 230.757 254.452 226.886 257.205 223.1 260.019 C 221.98 260.852 220.861 261.684 219.743 262.518 C 219.057 263.029 218.369 263.539 217.68 264.046 C 217.369 264.277 217.057 264.508 216.736 264.747 C 216.465 264.946 216.194 265.146 215.915 265.352 C 214.908 266.174 214.002 267.113 213.084 268.031 C 222.669 268.197 232.253 268.361 242.128 268.532 C 242.128 274.15 242.128 279.769 242.128 285.557 C 222.464 285.557 202.799 285.557 182.537 285.557 C 183.69 272.876 190.302 264.516 199.526 256.293 C 201.636 254.537 203.827 252.906 206.038 251.282 C 208.625 249.373 211.091 247.358 213.504 245.234 C 214.536 244.336 215.464 243.552 216.707 242.966 C 217.882 242.336 218.078 241.704 218.593 240.489 C 218.811 240.115 219.03 239.742 219.255 239.356 C 220.698 236.791 221.477 234.905 220.916 231.962 C 220.224 229.831 219.066 228.79 217.247 227.563 C 214.506 226.581 212.163 226.581 209.423 227.563 C 206.791 229.338 205.797 231.381 204.947 234.386 C 204.778 234.968 204.611 235.549 204.438 236.148 C 204.317 236.589 204.195 237.03 204.071 237.485 C 201.378 237.282 198.687 237.077 195.996 236.87 C 195.079 236.801 194.163 236.731 193.247 236.662 C 191.932 236.563 190.617 236.462 189.302 236.36 C 188.89 236.329 188.479 236.3 188.056 236.267 C 185.156 236.039 185.156 236.039 184.039 235.482 C 184.337 228.761 186.464 222.77 191.395 218.08 C 202.358 209.144 224.593 209.764 235.556 218.361 Z" style="fill: rgb(255, 255, 255);"/>
  <path d="M 284.192 212.446 C 290.142 212.446 296.09 212.446 302.22 212.446 C 302.22 226.822 302.22 241.2 302.22 256.012 C 305.029 256.012 307.838 256.012 310.733 256.012 C 310.733 261.3 310.733 266.589 310.733 272.037 C 307.924 272.037 305.114 272.037 302.22 272.037 C 302.22 276.499 302.22 280.96 302.22 285.557 C 296.27 285.557 290.322 285.557 284.192 285.557 C 284.192 281.095 284.192 276.634 284.192 272.037 C 272.295 272.037 260.396 272.037 248.138 272.037 C 248.138 255.011 248.138 255.011 251.111 250.536 C 252.923 248.912 252.923 248.912 253.821 248.192 C 255.039 247.171 255.963 245.969 256.932 244.714 C 258.639 242.606 260.388 240.54 262.159 238.486 C 263.939 236.42 265.698 234.343 267.417 232.226 C 269.364 229.828 271.364 227.48 273.379 225.139 C 275.567 222.596 277.737 220.036 279.9 217.472 C 281.325 215.79 282.759 214.118 284.192 212.446 Z M 283.692 234.98 C 283.05 235.729 282.428 236.495 281.814 237.265 C 279.925 239.599 277.995 241.886 276.024 244.151 C 275.752 244.465 275.479 244.778 275.198 245.101 C 274.067 246.403 272.933 247.705 271.796 249.004 C 270.95 249.971 270.106 250.942 269.264 251.913 C 268.871 252.358 268.871 252.358 268.471 252.812 C 267.105 254.21 267.105 254.21 266.666 256.012 C 272.45 256.012 278.233 256.012 284.192 256.012 C 284.192 249.072 284.192 242.131 284.192 234.98 C 284.027 234.98 283.862 234.98 283.692 234.98 Z" style="fill: rgb(255, 255, 255);"/>
  <path d="M 196.576 340.498 C 200.974 342.329 205.544 344.584 208.046 348.779 C 208.924 351.877 209.122 354.782 207.826 357.792 C 206.463 360.193 204.205 362.157 201.555 362.996 C 197.713 363.695 195.002 362.814 191.551 361.173 C 191.077 360.949 190.602 360.725 190.113 360.494 C 186.544 358.687 184.15 356.838 182.319 353.254 C 181.755 350.062 182.001 346.701 183.839 343.949 C 187.224 340.074 191.631 338.76 196.576 340.498 Z" style="fill: rgb(255, 255, 255);"/>
  <path d="M 241.628 354.162 C 243.819 356.138 245.428 358.323 245.758 361.297 C 245.927 364.733 245.274 367.371 242.934 369.953 C 240.382 372.257 237.794 372.875 234.462 372.784 C 224.126 372.064 224.126 372.064 220.658 368.246 C 218.847 365.583 218.036 362.893 218.593 359.671 C 219.644 356.785 220.879 354.253 223.6 352.66 C 228.728 350.274 236.902 351.38 241.628 354.162 Z" style="fill: rgb(255, 255, 255);"/>
  <path d="M 342.281 308.092 C 344.166 309.882 345.634 311.857 345.954 314.468 C 346.037 320.834 343.179 324.459 338.949 328.955 C 336.726 331.163 334.587 331.723 331.514 331.91 C 328.029 331.774 325.888 330.347 323.565 327.841 C 322.209 325.806 321.604 324.435 321.593 321.957 C 321.584 321.504 321.576 321.051 321.567 320.585 C 321.993 317.13 323.797 314.649 325.912 312.004 C 326.143 311.702 326.374 311.4 326.611 311.089 C 330.651 305.971 336.686 304.11 342.281 308.092 Z" style="fill: rgb(255, 255, 255);"/>
  <path d="M 357.962 272.882 C 360.134 274.752 362.066 276.7 362.813 279.549 C 362.998 282.741 362.47 285.311 361.498 288.344 C 361.38 288.749 361.262 289.156 361.14 289.574 C 360.057 293.014 358.409 295.527 355.364 297.513 C 352.029 298.713 349.631 298.835 346.342 297.582 C 343.59 296.262 341.84 294.471 340.779 291.567 C 339.506 286.715 341.353 281.615 343.419 277.178 C 344.922 274.632 346.619 273.02 349.386 271.88 C 352.478 271.322 355.138 271.444 357.962 272.882 Z" style="fill: rgb(255, 255, 255);"/>
  <path d="M 279.842 350.484 C 281.754 352.007 282.926 353.867 283.692 356.165 C 284.043 359.73 283.916 362.768 281.689 365.679 C 278.359 369.457 272.953 370.265 268.18 370.879 C 265.288 371.013 262.999 370.409 260.657 368.684 C 258.67 366.778 257.263 365.159 257.05 362.32 C 256.992 358.514 257.268 356.273 259.812 353.316 C 264.623 349.177 274.113 347.142 279.842 350.484 Z" style="fill: rgb(255, 255, 255);"/>
  <path d="M 315.74 335.634 C 317.811 337.762 318.72 339.88 318.763 342.875 C 318.54 346.486 317.392 348.66 314.739 351.126 C 310.838 354.332 306.647 356.871 301.535 356.805 C 298.746 356.511 296.618 355.276 294.771 353.192 C 292.71 350.221 292.273 347.728 292.706 344.146 C 294.077 339.489 297.768 337.316 301.75 334.976 C 302.046 334.802 302.341 334.626 302.645 334.445 C 307.219 331.855 311.675 332.325 315.74 335.634 Z" style="fill: rgb(255, 255, 255);"/>
</svg>