<?xml version="1.0" encoding="utf-8"?>
<svg viewBox="0 0 500 500" xmlns="http://www.w3.org/2000/svg">
  <path d="M 458.009 250 C 458.009 307.44 434.726 359.441 397.084 397.084 C 359.441 434.728 307.44 458.009 250 458.009 C 192.56 458.009 140.56 434.727 102.917 397.085 C 65.273 359.442 41.991 307.44 41.991 250 C 41.991 192.56 65.298 140.582 102.916 102.915 C 140.583 65.295 192.56 41.991 250 41.991 C 307.44 41.991 359.44 65.273 397.083 102.915 C 434.727 140.558 458.009 192.56 458.009 250 Z" style="fill: rgb(138, 15, 0); stroke-width: 12px; stroke-linecap: round;"/>
  <path fill="#2A2A2A" style=""/>
  <path fill="#2B2B2B" style=""/>
  <path d="M 142.727 192.801 C 146.583 195.973 148.447 201.053 150.449 205.503 C 150.975 206.657 151.501 207.811 152.027 208.964 C 152.301 209.567 152.576 210.17 152.859 210.791 C 154.375 214.114 155.93 217.419 157.478 220.726 C 159.445 224.929 161.399 229.136 163.309 233.365 C 163.686 233.206 164.063 233.048 164.452 232.885 C 168.37 231.384 171.842 231.83 175.662 233.367 C 177.031 233.994 178.381 234.649 179.729 235.32 C 180.228 235.562 180.725 235.806 181.238 236.058 C 182.291 236.574 183.342 237.092 184.392 237.614 C 185.996 238.406 187.607 239.184 189.219 239.96 C 200.358 245.363 208.311 251.664 215.755 261.606 C 216.047 261.983 216.339 262.361 216.639 262.749 C 221.631 269.483 227.353 280.328 227.353 288.837 C 227.936 288.712 228.519 288.588 229.119 288.459 C 231.604 288.146 233.426 288.876 235.422 290.35 C 237.128 292.124 237.349 294.052 237.654 296.402 C 237.715 296.832 237.775 297.263 237.836 297.706 C 238.762 304.516 239.518 311.35 240.285 318.179 C 240.515 320.213 240.748 322.246 240.982 324.279 C 241.166 325.867 241.345 327.457 241.523 329.047 C 241.608 329.797 241.694 330.546 241.781 331.295 C 243.312 344.517 243.312 344.517 240.465 348.343 C 237.477 351.255 234.651 351.521 230.672 351.524 C 230.196 351.528 229.721 351.532 229.231 351.536 C 227.663 351.549 226.094 351.553 224.525 351.556 C 223.431 351.561 222.338 351.565 221.244 351.57 C 218.952 351.579 216.659 351.582 214.367 351.583 C 211.436 351.587 208.506 351.606 205.575 351.628 C 203.316 351.644 201.056 351.647 198.797 351.647 C 197.717 351.65 196.637 351.656 195.557 351.667 C 194.042 351.681 192.529 351.678 191.014 351.671 C 190.351 351.682 190.351 351.682 189.675 351.694 C 186.456 351.656 184.046 350.798 181.463 348.848 C 177.589 344.325 177.597 337.996 176.952 332.322 C 176.863 331.551 176.774 330.782 176.685 330.011 C 176.5 328.402 176.316 326.793 176.133 325.183 C 175.902 323.136 175.664 321.09 175.424 319.044 C 175.239 317.454 175.057 315.864 174.877 314.274 C 174.791 313.52 174.704 312.766 174.615 312.013 C 173.149 299.468 173.149 299.468 175.916 295.897 C 175.83 294.511 175.538 293.999 174.523 293.044 C 170.814 290.505 166.903 288.517 162.867 286.568 C 152.633 281.598 143.106 276.871 139.016 265.553 C 138.865 265.139 138.715 264.726 138.56 264.301 C 136.456 258.438 134.623 252.485 132.768 246.54 C 132.071 244.309 131.373 242.079 130.675 239.849 C 130.475 239.206 130.274 238.564 130.073 237.921 C 128.863 234.042 127.633 230.172 126.367 226.312 C 125.697 224.267 125.037 222.221 124.377 220.173 C 124.072 219.234 123.761 218.295 123.447 217.359 C 121.289 210.921 119.143 203.792 121.988 197.214 C 124.114 193.683 127.275 191.276 131.254 190.154 C 135.579 189.627 139.108 190.363 142.727 192.801 Z M 130.53 199.577 C 128.668 201.58 128.75 203.249 128.821 205.884 C 129.191 209.221 130.283 212.339 131.341 215.506 C 131.586 216.26 131.829 217.014 132.072 217.768 C 132.719 219.765 133.374 221.759 134.033 223.751 C 134.71 225.809 135.379 227.869 136.048 229.929 C 136.842 232.371 137.637 234.813 138.435 237.254 C 139.867 241.631 141.274 246.013 142.627 250.415 C 142.767 250.866 142.906 251.318 143.049 251.783 C 143.542 253.382 144.034 254.981 144.514 256.583 C 146.773 264.103 149.385 270.257 156.539 274.248 C 158.556 275.317 160.614 276.296 162.678 277.27 C 164.064 277.934 165.448 278.603 166.83 279.273 C 167.168 279.437 167.505 279.6 167.853 279.768 C 174.836 283.179 180.463 286.889 185.498 292.871 C 185.664 293.038 185.83 293.204 186.002 293.376 C 192.972 293.337 199.992 292.159 206.898 291.327 C 208.103 291.183 209.308 291.04 210.513 290.897 C 213.437 290.548 216.361 290.198 219.285 289.845 C 218.814 288.16 218.338 286.476 217.863 284.791 C 217.664 284.082 217.664 284.082 217.462 283.358 C 214.84 274.104 210.109 267.531 203.848 260.394 C 203.23 259.683 202.625 258.96 202.023 258.237 C 201.697 257.85 201.372 257.464 201.036 257.067 C 200.769 256.744 200.502 256.422 200.226 256.09 C 196.72 252.812 192.288 250.748 188.051 248.588 C 187.447 248.279 186.843 247.969 186.24 247.659 C 185.041 247.045 183.841 246.432 182.641 245.821 C 181.139 245.056 179.639 244.285 178.14 243.514 C 177.336 243.104 176.532 242.694 175.727 242.285 C 175.368 242.1 175.009 241.915 174.64 241.725 C 172.9 240.849 171.313 240.097 169.36 239.921 C 167.607 240.552 166.593 241.113 165.42 242.569 C 164.674 244.297 164.317 245.591 164.317 247.485 C 165.948 249.411 167.629 250.562 169.868 251.691 C 170.74 252.136 170.74 252.136 171.63 252.59 C 172.239 252.895 172.848 253.201 173.458 253.505 C 174.646 254.108 175.835 254.712 177.023 255.315 C 177.598 255.608 178.173 255.899 178.764 256.2 C 185.633 259.724 185.633 259.724 187.01 261.101 C 187.169 263.288 187.237 264.291 186.002 266.144 C 184.452 266.762 183.396 266.791 181.814 266.254 C 180.401 265.629 179.026 264.953 177.649 264.253 C 177.144 264.003 176.638 263.751 176.117 263.493 C 175.061 262.967 174.009 262.437 172.957 261.903 C 171.427 261.126 169.889 260.364 168.349 259.602 C 167.404 259.126 166.459 258.649 165.515 258.17 C 165.076 257.953 164.638 257.736 164.186 257.512 C 160.576 255.643 158.327 253.499 157.003 249.571 C 156.419 247.053 156.612 244.647 157.123 242.132 C 157.438 239.575 156.594 237.83 155.476 235.571 C 155.187 234.957 155.187 234.957 154.892 234.329 C 154.26 232.995 153.616 231.667 152.97 230.339 C 152.531 229.418 152.093 228.495 151.656 227.572 C 150.767 225.7 149.873 223.83 148.976 221.963 C 147.768 219.444 146.583 216.917 145.406 214.383 C 145.233 214.01 145.059 213.636 144.88 213.252 C 144.545 212.529 144.209 211.806 143.873 211.083 C 143.713 210.74 143.554 210.396 143.389 210.041 C 143.153 209.534 143.153 209.534 142.912 209.015 C 142.468 208.061 142.023 207.109 141.577 206.157 C 141.328 205.626 141.081 205.094 140.825 204.547 C 139.413 201.701 138.148 199.904 135.573 198.065 C 133.346 198.065 132.417 198.453 130.53 199.577 Z M 220.708 297.315 C 220.323 297.357 219.939 297.402 219.543 297.446 C 218.289 297.588 217.035 297.735 215.781 297.881 C 214.901 297.981 214.022 298.083 213.142 298.182 C 211.306 298.393 209.471 298.604 207.635 298.817 C 205.287 299.09 202.938 299.36 200.59 299.628 C 198.341 299.885 196.092 300.143 193.844 300.402 C 193.204 300.476 193.204 300.476 192.552 300.55 C 191.342 300.689 190.132 300.83 188.921 300.97 C 188.567 301.011 188.213 301.052 187.847 301.094 C 185.872 301.324 183.933 301.621 181.967 301.949 C 182.3 305.11 182.633 308.272 182.976 311.531 C 188.482 311.179 193.942 310.627 199.423 310.002 C 200.305 309.902 201.187 309.802 202.069 309.703 C 203.899 309.495 205.731 309.286 207.562 309.077 C 209.913 308.808 212.265 308.542 214.617 308.278 C 216.43 308.074 218.243 307.867 220.056 307.66 C 220.924 307.561 221.791 307.463 222.66 307.366 C 223.865 307.231 225.069 307.092 226.273 306.954 C 226.812 306.894 226.812 306.894 227.363 306.833 C 229.015 306.759 229.015 306.759 230.379 305.983 C 230.347 304.836 230.278 303.691 230.19 302.547 C 230.145 301.92 230.1 301.293 230.052 300.647 C 229.916 299.323 229.711 298.18 229.371 296.906 C 226.442 296.868 223.615 296.97 220.708 297.315 Z M 226.277 314.507 C 225.853 314.555 225.429 314.603 224.993 314.654 C 223.586 314.814 222.179 314.976 220.773 315.137 C 219.796 315.249 218.82 315.361 217.844 315.473 C 215.795 315.707 213.746 315.943 211.697 316.178 C 209.072 316.48 206.447 316.78 203.822 317.081 C 201.805 317.312 199.787 317.543 197.77 317.775 C 196.802 317.887 195.835 317.997 194.867 318.108 C 193.513 318.262 192.158 318.418 190.803 318.574 C 190.404 318.619 190.004 318.665 189.593 318.712 C 187.702 318.931 185.843 319.187 183.985 319.599 C 184.31 324.148 184.721 328.682 185.214 333.215 C 185.276 333.813 185.336 334.412 185.4 335.029 C 185.463 335.606 185.525 336.182 185.59 336.776 C 185.645 337.292 185.7 337.807 185.756 338.339 C 186.107 340.385 186.373 341.792 188.052 343.11 C 189.944 343.998 191.621 344.013 193.666 343.992 C 194.076 343.995 194.486 343.996 194.907 343.998 C 196.257 344.002 197.606 343.996 198.955 343.988 C 199.896 343.988 200.836 343.988 201.776 343.989 C 203.745 343.989 205.713 343.984 207.682 343.974 C 210.203 343.963 212.724 343.963 215.247 343.966 C 217.187 343.968 219.128 343.964 221.068 343.959 C 221.999 343.958 222.928 343.957 223.858 343.958 C 225.158 343.958 226.458 343.952 227.758 343.943 C 228.14 343.945 228.523 343.946 228.919 343.947 C 230.971 343.927 232.566 343.71 234.413 342.796 C 234.145 337.229 233.692 331.71 233.037 326.174 C 232.899 325 232.763 323.825 232.629 322.651 C 232.541 321.893 232.453 321.136 232.365 320.379 C 232.325 320.033 232.286 319.686 232.244 319.33 C 232.032 317.551 231.769 315.802 231.388 314.052 C 229.675 314.052 227.978 314.311 226.277 314.507 Z" style="fill: rgb(255, 255, 255);"/>
  <path d="M 373.848 192.348 C 377.14 195.062 378.859 197.552 379.341 201.818 C 379.671 208.284 377.776 213.679 375.584 219.686 C 375.216 220.725 374.849 221.764 374.483 222.804 C 373.73 224.939 372.97 227.072 372.204 229.203 C 371.127 232.204 370.075 235.214 369.034 238.228 C 367.629 242.29 366.214 246.348 364.788 250.402 C 363.977 252.709 363.174 255.016 362.379 257.328 C 362.034 258.325 361.689 259.322 361.342 260.318 C 360.938 261.477 360.538 262.639 360.143 263.802 C 356.95 272.889 351.491 278.438 342.93 282.691 C 342.433 282.945 341.935 283.199 341.423 283.462 C 339.879 284.25 338.333 285.031 336.785 285.811 C 334.858 286.781 332.937 287.759 331.017 288.743 C 330.591 288.954 330.164 289.165 329.726 289.384 C 326.889 290.837 324.328 292.521 322.16 294.888 C 322.16 295.221 322.16 295.554 322.16 295.897 C 322.389 296.115 322.618 296.334 322.853 296.559 C 324.296 298.057 324.676 299.481 324.701 301.544 C 324.65 302.143 324.6 302.742 324.547 303.359 C 324.52 303.689 324.494 304.018 324.466 304.358 C 324.148 308.141 323.731 311.915 323.299 315.686 C 323.213 316.445 323.126 317.203 323.04 317.961 C 322.861 319.536 322.68 321.11 322.499 322.683 C 322.267 324.689 322.043 326.694 321.819 328.701 C 321.644 330.26 321.465 331.821 321.285 333.38 C 321.199 334.12 321.116 334.86 321.035 335.599 C 319.975 345.177 319.975 345.177 317.67 348.01 C 317.332 348.276 316.993 348.543 316.644 348.816 C 316.138 349.228 316.138 349.228 315.622 349.649 C 312.468 351.835 309.522 351.554 305.771 351.558 C 305.147 351.571 304.524 351.583 303.882 351.596 C 303.283 351.598 302.684 351.599 302.068 351.602 C 301.52 351.606 300.973 351.61 300.41 351.614 C 298.616 351.31 298.028 350.792 296.946 349.352 C 296.676 347.462 296.606 346.348 297.655 344.723 C 299.657 343.318 301.615 343.503 304.006 343.489 C 304.909 343.477 305.813 343.459 306.716 343.439 C 307.115 343.436 307.514 343.432 307.925 343.429 C 309.205 343.283 309.998 343.012 311.066 342.292 C 312.456 337.942 312.652 333.171 313.146 328.644 C 313.238 327.815 313.331 326.985 313.423 326.155 C 313.649 324.138 313.871 322.121 314.091 320.103 C 308.811 319.236 303.515 318.593 298.199 317.985 C 297.316 317.884 296.433 317.782 295.55 317.68 C 293.717 317.47 291.882 317.26 290.048 317.051 C 287.692 316.783 285.337 316.51 282.982 316.237 C 281.166 316.028 279.351 315.82 277.535 315.613 C 276.666 315.514 275.797 315.413 274.927 315.312 C 273.721 315.172 272.514 315.035 271.308 314.899 C 270.947 314.856 270.586 314.814 270.215 314.77 C 269.377 314.678 268.537 314.613 267.696 314.556 C 266.585 315.668 266.771 318.093 266.591 319.64 C 266.536 320.107 266.481 320.572 266.424 321.053 C 266.307 322.045 266.192 323.037 266.077 324.03 C 265.903 325.531 265.723 327.03 265.542 328.529 C 264.981 333.3 264.447 337.985 264.671 342.796 C 267.055 343.261 269.379 343.383 271.8 343.406 C 272.587 343.42 273.375 343.436 274.163 343.45 C 275.395 343.471 276.626 343.489 277.858 343.503 C 279.054 343.516 280.249 343.54 281.445 343.564 C 281.814 343.566 282.182 343.568 282.562 343.569 C 285.099 343.631 285.099 343.631 286.319 344.485 C 287.159 345.779 287.303 346.811 287.364 348.343 C 286.791 349.517 286.27 350.446 285.346 351.369 C 284.651 351.424 283.953 351.444 283.254 351.45 C 282.81 351.455 282.366 351.46 281.908 351.466 C 281.424 351.467 280.939 351.469 280.44 351.471 C 279.944 351.474 279.448 351.477 278.938 351.481 C 277.884 351.485 276.832 351.488 275.779 351.49 C 274.173 351.495 272.568 351.511 270.962 351.526 C 269.94 351.53 268.918 351.533 267.896 351.534 C 267.177 351.544 267.177 351.544 266.443 351.553 C 263.334 351.543 261.065 351.182 258.689 348.99 C 258.447 348.693 258.206 348.396 257.958 348.091 C 257.71 347.794 257.462 347.498 257.207 347.193 C 253.901 342.455 256.403 332.294 257.038 326.865 C 257.136 325.997 257.234 325.128 257.332 324.259 C 257.536 322.455 257.744 320.652 257.954 318.85 C 258.221 316.552 258.481 314.253 258.738 311.955 C 258.938 310.167 259.142 308.38 259.348 306.592 C 259.446 305.745 259.541 304.898 259.636 304.05 C 260.885 292.908 260.885 292.908 263.41 289.814 C 264.889 288.743 266.263 288.653 268.059 288.524 C 268.558 288.486 269.057 288.448 269.571 288.409 C 270.141 288.371 270.141 288.371 270.722 288.332 C 270.869 287.865 271.016 287.399 271.167 286.917 C 271.728 285.145 272.298 283.377 272.871 281.611 C 273.115 280.852 273.356 280.093 273.595 279.334 C 276.531 269.998 281.184 262.972 287.792 255.742 C 288.766 254.668 289.705 253.572 290.642 252.465 C 294.326 248.291 298.239 245.568 303.218 243.104 C 304.117 242.65 305.018 242.196 305.917 241.742 C 306.844 241.276 307.773 240.813 308.701 240.35 C 310.236 239.583 311.761 238.797 313.282 238.003 C 314.725 237.251 316.174 236.506 317.621 235.76 C 318.147 235.483 318.673 235.207 319.214 234.922 C 324.083 232.447 328.442 231.144 333.759 232.86 C 334.258 233.027 334.757 233.193 335.271 233.365 C 336.638 230.708 338.002 228.049 339.366 225.391 C 339.851 224.447 340.336 223.502 340.82 222.558 C 343.286 217.757 345.747 212.953 348.125 208.107 C 348.295 207.762 348.465 207.416 348.641 207.06 C 349.422 205.473 350.196 203.885 350.963 202.291 C 353.501 197.118 355.992 192.779 361.495 190.5 C 365.698 189.246 370.207 189.92 373.848 192.348 Z M 362.504 199.073 C 360.899 200.892 359.833 202.742 358.777 204.919 C 358.422 205.642 358.068 206.365 357.714 207.087 C 357.516 207.491 357.318 207.896 357.114 208.314 C 355.81 210.973 354.477 213.618 353.151 216.266 C 352.552 217.462 351.954 218.659 351.356 219.855 C 351.051 220.465 350.746 221.075 350.441 221.685 C 350.213 222.141 350.213 222.141 349.98 222.606 C 348.071 226.426 346.16 230.245 344.251 234.065 C 344.009 234.552 343.768 235.037 343.519 235.539 C 343.084 236.403 342.639 237.262 342.182 238.114 C 341.692 239.035 341.25 239.98 340.819 240.929 C 340.985 241.428 341.151 241.927 341.323 242.442 C 341.397 243.67 341.435 244.9 341.449 246.129 C 341.462 246.783 341.476 247.436 341.489 248.109 C 341.313 250.123 340.804 251.293 339.811 253.032 C 339.561 253.781 339.561 253.781 339.306 254.545 C 338.378 255.081 338.378 255.081 337.289 255.553 C 336.689 255.885 336.092 256.221 335.496 256.56 C 331.143 259.024 326.749 261.393 322.286 263.654 C 321.818 263.894 321.35 264.135 320.868 264.383 C 316.597 266.524 316.597 266.524 314.091 266.648 C 312.673 266.112 312.673 266.112 311.57 265.135 C 311.079 263.597 310.885 262.625 311.424 261.088 C 312.251 259.823 313.025 259.426 314.373 258.748 C 314.845 258.508 315.316 258.267 315.802 258.018 C 316.309 257.767 316.815 257.515 317.338 257.256 C 318.39 256.72 319.44 256.185 320.492 255.648 C 321.287 255.246 321.287 255.246 322.1 254.837 C 324.461 253.642 326.81 252.427 329.157 251.204 C 329.565 250.996 329.971 250.787 330.391 250.573 C 332.413 249.648 332.413 249.648 333.759 247.989 C 333.962 245.351 333.658 243.683 332.246 241.434 C 330.341 240.163 328.902 240.081 326.699 240.425 C 324.848 241.075 323.133 241.942 321.39 242.838 C 320.892 243.087 320.393 243.336 319.88 243.592 C 318.829 244.12 317.78 244.652 316.733 245.186 C 315.143 245.997 313.547 246.795 311.949 247.59 C 310.925 248.106 309.901 248.624 308.877 249.142 C 308.406 249.377 307.934 249.612 307.448 249.855 C 301.099 253.12 296.49 257.652 292.069 263.179 C 291.303 264.125 290.521 265.057 289.72 265.972 C 284.608 271.876 279.296 281.772 279.296 289.845 C 283.188 290.307 287.081 290.768 290.974 291.226 C 292.782 291.439 294.589 291.652 296.397 291.867 C 298.143 292.075 299.889 292.28 301.635 292.485 C 302.623 292.602 303.609 292.719 304.597 292.837 C 305.202 292.908 305.808 292.979 306.432 293.052 C 306.963 293.114 307.494 293.177 308.04 293.241 C 309.581 293.378 311.033 293.489 312.578 293.375 C 313.689 292.365 314.574 291.439 315.51 290.287 C 319.438 285.524 324.404 283.061 329.85 280.296 C 332.164 279.112 334.476 277.927 336.785 276.734 C 337.229 276.505 337.229 276.505 337.683 276.271 C 338.565 275.814 339.443 275.351 340.322 274.888 C 340.837 274.618 341.35 274.35 341.879 274.073 C 347.098 270.969 350.614 266.617 352.505 260.916 C 352.716 260.302 352.716 260.302 352.932 259.675 C 353.396 258.324 353.853 256.971 354.308 255.617 C 354.636 254.66 354.964 253.703 355.293 252.747 C 355.991 250.714 356.686 248.679 357.379 246.644 C 359.043 241.763 360.735 236.891 362.426 232.02 C 362.96 230.482 363.492 228.942 364.022 227.404 C 364.361 226.424 364.7 225.446 365.039 224.467 C 365.203 223.994 365.366 223.521 365.534 223.034 C 366.39 220.57 367.268 218.115 368.179 215.67 C 368.458 214.918 368.458 214.918 368.743 214.153 C 369.096 213.203 369.454 212.255 369.815 211.309 C 371.026 208.063 371.9 205.067 371.076 201.595 C 370.147 199.872 369.508 199.308 367.798 198.411 C 365.727 197.841 364.278 197.908 362.504 199.073 Z M 268.705 297.41 C 268.336 299.666 268.174 301.823 268.187 304.109 C 268.189 304.557 268.192 305.004 268.193 305.465 C 268.195 305.802 268.199 306.14 268.201 306.487 C 273.935 307.147 279.668 307.804 285.403 308.46 C 288.065 308.764 290.728 309.069 293.39 309.376 C 295.96 309.671 298.53 309.965 301.1 310.258 C 302.08 310.37 303.06 310.483 304.041 310.596 C 305.414 310.755 306.788 310.911 308.161 311.067 C 308.565 311.115 308.97 311.161 309.386 311.21 C 309.952 311.274 309.952 311.274 310.53 311.338 C 310.854 311.376 311.179 311.413 311.514 311.451 C 312.873 311.552 314.24 311.53 315.604 311.53 C 315.937 308.368 316.269 305.206 316.613 301.949 C 312.298 301.439 307.984 300.931 303.67 300.423 C 301.666 300.186 299.661 299.95 297.657 299.714 C 293.511 299.224 289.365 298.737 285.218 298.253 C 283.256 298.024 281.293 297.792 279.33 297.559 C 278.53 297.466 277.728 297.373 276.927 297.28 C 276.292 297.205 275.656 297.13 275.001 297.053 C 271.641 296.562 271.641 296.562 268.705 297.41 Z" style="fill: rgb(255, 255, 255);"/>
  <path d="M 273.654 152.079 C 274.366 152.605 275.071 153.141 275.766 153.687 C 276.106 153.934 276.447 154.181 276.798 154.436 C 281.995 158.505 285.024 164.877 285.852 171.338 C 286.382 171.036 286.913 170.734 287.458 170.423 C 294.42 166.961 301.394 167.27 308.624 169.501 C 310.855 170.278 312.719 171.436 314.596 172.85 C 314.989 173.146 315.381 173.442 315.785 173.746 C 319.7 176.959 323.318 181.578 323.863 186.75 C 323.673 188.484 323.673 188.484 322.822 189.681 C 321.499 190.611 320.754 190.965 319.135 191.005 C 316.861 189.952 315.987 188.708 314.816 186.529 C 312.09 181.504 308.911 178.738 303.439 176.948 C 298.589 175.678 294.266 176.498 289.917 178.996 C 287.47 180.283 285.024 180.319 282.321 179.91 C 279.996 178.789 278.948 177.633 277.783 175.372 C 277.502 174.235 277.263 173.088 277.058 171.936 C 276.127 167.316 274.548 163.224 270.555 160.428 C 265.753 157.447 261.749 156.748 256.099 157.217 C 251.257 158.357 247.301 161.233 244.691 165.443 C 238.964 176.604 239.181 189.37 242.81 201.144 C 245.356 208.966 249.368 216.244 253.577 223.279 C 253.861 223.794 254.146 224.309 254.437 224.84 C 254.715 225.302 254.993 225.765 255.279 226.242 C 255.511 226.647 255.744 227.051 255.984 227.468 C 257.867 228.901 259.87 228.494 262.149 228.322 C 262.637 228.286 263.123 228.25 263.626 228.213 C 281.161 226.689 298.558 222.153 310.562 208.434 C 311.859 206.772 312.904 205.029 313.896 203.173 C 314.68 201.97 315.39 201.33 316.614 200.586 C 318.378 200.334 318.378 200.334 320.143 200.586 C 321.404 201.595 321.404 201.595 322.16 203.108 C 322.589 207.914 318.708 211.813 315.796 215.305 C 303.45 229.605 283.836 235.244 265.609 236.736 C 263.206 236.905 260.807 237.016 258.399 237.053 C 257.876 237.066 257.876 237.066 257.342 237.08 C 255.149 237.077 253.814 236.701 252.064 235.382 C 239.01 222.031 231.59 201.019 231.715 182.663 C 231.915 173.228 234.456 162.901 241.127 155.83 C 249.739 147.821 263.465 145.627 273.654 152.079 Z" style="fill: rgb(255, 255, 255);"/>
  <path d="M 215.867 163.055 C 220.768 167.123 222.987 172.091 223.824 178.397 C 224.574 190.741 219.883 202.557 212.225 212.184 C 210.101 213.6 208.326 213.366 205.826 213.351 C 205.114 213.347 205.114 213.347 204.387 213.343 C 193.702 213.167 182.402 209.89 174.549 202.357 C 170.363 197.763 167.41 192.486 167.672 186.121 C 168.354 181.576 170.389 177.388 173.988 174.487 C 177.336 172.152 180.143 171.194 184.268 171.211 C 185.236 171.207 185.236 171.207 186.224 171.203 C 187.903 171.328 189.038 171.619 190.541 172.345 C 190.633 171.933 190.633 171.933 190.73 171.512 C 191.806 167.578 193.923 164.65 197.383 162.441 C 203.365 159.334 210.222 159.048 215.867 163.055 Z M 199.46 171.368 C 198.403 173.208 197.989 175.008 197.553 177.075 C 196.904 178.953 195.839 180.034 194.07 180.918 C 191.755 181.075 190.446 181.098 188.302 180.162 C 185.819 179.117 183.549 178.856 180.965 179.754 C 178.763 180.881 177.529 182.272 176.42 184.448 C 175.564 187.474 176.09 189.756 177.429 192.517 C 181.297 198.904 187.946 202.203 194.964 204.135 C 196.849 204.551 198.716 204.861 200.626 205.124 C 201.513 205.282 201.513 205.282 202.419 205.444 C 204.22 205.639 205.453 205.674 207.182 205.124 C 209.076 203.199 210.122 200.995 211.217 198.569 C 211.644 197.698 211.644 197.698 212.079 196.809 C 215.268 189.942 217.201 182.346 214.703 174.98 C 213.593 172.28 212.092 170.47 209.703 168.816 C 205.697 167.48 202.496 168.661 199.46 171.368 Z" style="fill: rgb(255, 255, 255);"/>
</svg>