<?xml version="1.0" encoding="utf-8"?>
<svg viewBox="0 0 500 500" xmlns="http://www.w3.org/2000/svg">
  <g id="XMLID_240_" transform="matrix(1, 0, 0, 1, -389.685089111328, 590.6454467773438)">
    <path id="XMLID_241_" d="M 863.731 148.514 L 1175.033 148.514 C 1196.523 148.514 1213.945 131.091 1213.945 109.602 C 1213.945 88.112 1196.523 70.689 1175.033 70.689 L 863.731 70.689 C 842.241 70.689 824.818 88.112 824.818 109.602 C 824.818 131.091 842.241 148.514 863.731 148.514 Z" style="fill: rgb(255, 253, 253);"/>
    <path id="XMLID_242_" d="M 1175.033 226.34 L 863.731 226.34 C 842.241 226.34 824.818 243.763 824.818 265.253 C 824.818 286.743 842.241 304.165 863.731 304.165 L 1175.033 304.165 C 1196.523 304.165 1213.945 286.743 1213.945 265.253 C 1213.945 243.763 1196.523 226.34 1175.033 226.34 Z" style="fill: rgb(255, 253, 253);"/>
    <path id="XMLID_243_" d="M 1175.033 381.991 L 863.731 381.991 C 842.241 381.991 824.818 399.414 824.818 420.904 C 824.818 442.394 842.241 459.816 863.731 459.816 L 1175.033 459.816 C 1196.523 459.816 1213.945 442.394 1213.945 420.904 C 1213.945 399.414 1196.523 381.991 1175.033 381.991 Z" style="fill: rgb(255, 253, 253);"/>
    <g transform="matrix(7.57866, 0, 0, 7.57866, 428.42099, -551.910095)" style="">
      <path d="M43.006,23.916c-0.28-0.282-0.59-0.52-0.912-0.727L20.485,1.581c-2.109-2.107-5.527-2.108-7.637,0.001&#10;&#9;&#9;c-2.109,2.108-2.109,5.527,0,7.637l18.611,18.609L12.754,46.535c-2.11,2.107-2.11,5.527,0,7.637c1.055,1.053,2.436,1.58,3.817,1.58&#10;&#9;&#9;s2.765-0.527,3.817-1.582l21.706-21.703c0.322-0.207,0.631-0.444,0.912-0.727c1.08-1.08,1.598-2.498,1.574-3.912&#10;&#9;&#9;C44.605,26.413,44.086,24.993,43.006,23.916z" style="fill: rgb(255, 255, 255);"/>
    </g>
  </g>
</svg>