<?xml version="1.0" encoding="utf-8"?>
<svg viewBox="0 0 500 500" xmlns="http://www.w3.org/2000/svg">
  <path d="M 458.009 250 C 458.009 307.44 434.726 359.441 397.084 397.084 C 359.441 434.728 307.44 458.009 250 458.009 C 192.56 458.009 140.56 434.727 102.917 397.085 C 65.273 359.442 41.991 307.44 41.991 250 C 41.991 192.56 65.298 140.582 102.916 102.915 C 140.583 65.295 192.56 41.991 250 41.991 C 307.44 41.991 359.44 65.273 397.083 102.915 C 434.727 140.558 458.009 192.56 458.009 250 Z" style="fill: rgb(138, 15, 0); stroke-width: 12px; stroke-linecap: round;"/>
  <path d="M 225.939 132.439 C 227.279 132.445 228.619 132.439 229.959 132.434 C 234.263 132.431 238.529 132.549 242.816 132.963 C 243.187 132.999 243.558 133.034 243.941 133.071 C 245.945 133.288 247.713 133.667 249.613 134.379 C 250.674 134.698 251.735 135.011 252.8 135.318 C 253.334 135.474 253.87 135.629 254.421 135.788 C 255.851 136.164 257.255 136.439 258.717 136.656 C 258.717 136.956 258.717 137.256 258.717 137.565 C 260.519 137.79 260.519 137.79 262.358 138.02 C 262.358 138.321 262.358 138.621 262.358 138.93 C 262.771 138.949 263.184 138.968 263.609 138.988 C 265.884 139.295 267.784 140.432 269.79 141.491 C 271.003 142.154 271.003 142.154 272.371 142.572 C 272.371 142.872 272.371 143.173 272.371 143.482 C 273.033 143.567 273.033 143.567 273.708 143.653 C 274.169 143.747 274.628 143.84 275.102 143.937 C 275.252 144.238 275.402 144.538 275.557 144.848 C 276.008 144.998 276.458 145.148 276.923 145.303 C 276.923 145.604 276.923 145.904 276.923 146.214 C 277.243 146.241 277.561 146.27 277.89 146.299 C 279.618 146.787 280.574 147.786 281.93 148.944 C 282.682 149.262 283.44 149.57 284.205 149.855 C 284.355 150.155 284.506 150.455 284.66 150.765 C 285.111 150.915 285.561 151.065 286.026 151.221 C 286.026 151.521 286.026 151.821 286.026 152.13 C 286.299 152.177 286.571 152.224 286.851 152.272 C 287.989 152.631 288.473 153.027 289.212 153.951 C 289.212 154.252 289.212 154.552 289.212 154.862 C 289.475 154.899 289.737 154.936 290.008 154.975 C 291.33 155.416 291.96 156.084 292.853 157.137 C 292.853 157.438 292.853 157.738 292.853 158.048 C 293.248 158.09 293.248 158.09 293.65 158.133 C 295.092 158.654 295.583 159.561 296.495 160.779 C 297.509 161.817 298.533 162.833 299.596 163.822 C 300.136 164.42 300.136 164.42 300.136 165.33 C 300.587 165.48 301.037 165.63 301.501 165.786 C 302.384 166.746 302.384 166.746 303.323 167.947 C 303.631 168.339 303.942 168.731 304.26 169.135 C 305.143 170.337 305.143 170.337 305.877 171.564 C 306.481 172.669 306.481 172.669 307.504 173.58 C 308.329 174.434 308.329 174.434 308.329 175.799 C 308.629 175.799 308.929 175.799 309.239 175.799 C 309.39 176.399 309.539 177.001 309.695 177.62 C 309.995 177.62 310.295 177.62 310.604 177.62 C 310.901 178.187 311.195 178.756 311.486 179.326 C 311.65 179.643 311.814 179.96 311.983 180.286 C 312.405 181.215 312.668 182.085 312.881 183.082 C 313.181 183.082 313.481 183.082 313.79 183.082 C 314.087 183.724 314.38 184.371 314.673 185.016 C 314.836 185.374 315 185.734 315.169 186.103 C 315.567 187.067 315.845 187.982 316.067 188.999 C 316.367 188.999 316.667 188.999 316.977 188.999 C 317.165 189.515 317.352 190.031 317.546 190.563 C 318.066 191.97 318.658 193.309 319.31 194.659 C 320.253 196.725 320.475 198.575 320.618 200.833 C 320.919 200.833 321.22 200.833 321.528 200.833 C 321.679 202.034 321.829 203.236 321.983 204.474 C 322.284 204.474 322.585 204.474 322.894 204.474 C 323.026 205.248 323.026 205.248 323.161 206.038 C 323.28 206.731 323.4 207.423 323.519 208.115 C 323.578 208.454 323.635 208.792 323.694 209.141 C 323.989 210.838 324.322 212.506 324.757 214.174 C 325.186 215.916 325.244 217.262 325.169 219.039 C 325.47 219.039 325.771 219.039 326.081 219.039 C 326.591 227.297 326.771 235.55 326.337 243.817 C 326.319 244.162 326.301 244.506 326.282 244.862 C 326.139 247.2 326.139 247.2 325.625 247.715 C 325.465 248.716 325.327 249.722 325.199 250.729 C 324.89 252.993 324.454 255.081 323.804 257.273 C 323.468 259.088 323.176 260.91 322.894 262.734 C 322.594 262.734 322.293 262.734 321.983 262.734 C 321.833 263.937 321.683 265.138 321.528 266.375 C 321.228 266.375 320.928 266.375 320.618 266.375 C 320.468 266.977 320.318 267.577 320.163 268.197 C 312.353 268.197 304.542 268.197 296.495 268.197 C 296.795 266.995 297.095 265.793 297.405 264.555 C 297.706 264.555 298.006 264.555 298.315 264.555 C 298.362 264.189 298.409 263.823 298.457 263.445 C 298.777 261.788 299.268 260.281 299.821 258.689 C 300.174 257.682 300.174 257.682 300.392 256.419 C 300.591 255.452 300.591 255.452 301.501 254.087 C 301.763 252.945 301.988 251.824 302.184 250.673 C 302.272 250.182 302.272 250.182 302.36 249.683 C 302.477 249.026 302.592 248.369 302.706 247.711 C 302.916 246.524 303.15 245.342 303.378 244.158 C 305.071 234.645 304.164 225.457 302.192 216.083 C 301.948 214.898 301.718 213.711 301.489 212.523 C 301.191 211.025 300.843 209.606 300.307 208.173 C 299.778 206.754 299.681 206.065 299.681 204.474 C 299.381 204.474 299.08 204.474 298.77 204.474 C 298.389 203.517 298.01 202.559 297.633 201.601 C 297.421 201.067 297.21 200.534 296.993 199.984 C 296.495 198.557 296.495 198.557 296.495 197.191 C 296.195 197.191 295.894 197.191 295.584 197.191 C 295.329 196.656 295.329 196.656 295.067 196.109 C 293.506 192.876 293.506 192.876 291.545 189.881 C 290.578 188.543 290.578 188.543 290.578 187.178 C 290.277 187.178 289.977 187.178 289.667 187.178 C 289.045 186.346 289.045 186.346 288.358 185.243 C 287.592 184.046 286.922 183.065 285.913 182.057 C 285.116 181.26 285.116 181.26 284.689 180.066 C 284.305 178.871 284.305 178.871 283.067 178.53 C 281.93 178.074 281.93 178.074 281.417 176.908 C 281.22 176.359 281.22 176.359 281.019 175.799 C 280.568 175.648 280.117 175.498 279.654 175.344 C 279.654 175.044 279.654 174.742 279.654 174.434 C 279.203 174.284 278.752 174.133 278.288 173.978 C 278.288 173.678 278.288 173.378 278.288 173.067 C 277.537 172.767 276.786 172.467 276.013 172.158 C 276.013 171.858 276.013 171.556 276.013 171.247 C 275.412 171.097 274.811 170.947 274.192 170.792 C 274.192 170.491 274.192 170.191 274.192 169.881 C 273.591 169.732 272.99 169.581 272.371 169.427 C 272.371 169.126 272.371 168.826 272.371 168.516 C 271.77 168.367 271.17 168.216 270.551 168.06 C 270.551 167.76 270.551 167.46 270.551 167.151 C 269.799 167 269.048 166.85 268.275 166.695 C 268.275 166.395 268.275 166.095 268.275 165.786 C 266.524 164.837 264.679 164.194 262.812 163.509 C 262.812 163.209 262.812 162.909 262.812 162.599 C 262.061 162.449 261.311 162.299 260.537 162.143 C 260.537 161.843 260.537 161.543 260.537 161.234 C 260.077 161.187 259.617 161.14 259.143 161.091 C 257.254 160.762 255.889 160.222 254.165 159.413 C 254.165 159.113 254.165 158.812 254.165 158.502 C 253.574 158.456 252.982 158.409 252.373 158.361 C 250.436 158.151 248.748 157.657 246.922 157 C 245.712 156.595 244.505 156.388 243.24 156.227 C 243.24 156.076 243.24 155.926 243.24 155.771 C 240.434 155.381 237.651 155.186 234.82 155.06 C 234.194 155.031 234.194 155.031 233.555 155.001 C 232.535 154.953 231.516 154.906 230.496 154.862 C 230.496 154.561 230.496 154.261 230.496 153.951 C 228.544 153.951 226.591 153.951 224.579 153.951 C 224.579 154.252 224.579 154.552 224.579 154.862 C 220.224 155.011 215.868 155.162 211.379 155.316 C 211.379 155.617 211.379 155.918 211.379 156.227 C 210.989 156.315 210.599 156.403 210.197 156.494 C 206.872 157.239 206.872 157.239 203.585 158.133 C 202.276 158.502 202.276 158.502 200.911 158.502 C 200.911 158.803 200.911 159.104 200.911 159.413 C 199.334 159.638 199.334 159.638 197.725 159.868 C 197.725 160.169 197.725 160.469 197.725 160.779 C 196.148 161.003 196.148 161.003 194.539 161.234 C 194.539 161.534 194.539 161.834 194.539 162.143 C 193.412 162.37 193.412 162.37 192.263 162.599 C 192.263 162.899 192.263 163.199 192.263 163.509 C 192.02 163.604 191.777 163.698 191.527 163.795 C 188.946 164.863 186.794 166.215 184.555 167.883 C 183.615 168.516 183.615 168.516 182.705 168.516 C 182.705 168.817 182.705 169.117 182.705 169.427 C 182.104 169.577 181.503 169.727 180.884 169.881 C 180.884 170.182 180.884 170.483 180.884 170.792 C 179.987 171.418 179.074 172.021 178.153 172.613 C 176.452 173.839 175.574 174.922 174.512 176.709 C 173.835 176.935 173.835 176.935 173.146 177.164 C 172.865 177.586 172.583 178.009 172.293 178.444 C 171.326 179.895 171.326 179.895 170.245 180.72 C 168.765 181.953 167.924 183.348 166.925 184.98 C 166.725 185.254 166.525 185.53 166.319 185.812 C 166.018 185.812 165.718 185.812 165.409 185.812 C 165.183 186.713 165.183 186.713 164.953 187.633 C 164.653 187.633 164.353 187.633 164.043 187.633 C 163.892 188.384 163.743 189.135 163.587 189.909 C 163.287 189.909 162.987 189.909 162.678 189.909 C 162.634 190.149 162.591 190.39 162.546 190.637 C 162.116 192.09 161.418 193.306 160.686 194.631 C 159.156 197.413 157.728 200.077 156.761 203.108 C 156.462 203.87 156.161 204.629 155.85 205.384 C 155.549 205.384 155.249 205.384 154.94 205.384 C 154.858 206.035 154.858 206.035 154.773 206.698 C 154.697 207.269 154.62 207.84 154.541 208.428 C 154.468 208.993 154.394 209.558 154.318 210.141 C 154.062 211.572 153.69 212.706 153.119 214.032 C 152.948 214.939 152.792 215.849 152.664 216.763 C 152.363 216.763 152.062 216.763 151.754 216.763 C 151.737 217.206 151.737 217.206 151.719 217.657 C 151.665 219.038 151.61 220.418 151.555 221.798 C 151.534 222.296 151.516 222.794 151.494 223.307 C 151.36 226.578 151.167 229.832 150.883 233.094 C 150.838 234.684 151.06 236.128 151.299 237.701 C 151.429 239.417 151.497 241.138 151.575 242.857 C 151.702 245.464 151.846 248.013 152.693 250.502 C 153.112 251.788 153.198 252.745 153.119 254.087 C 153.419 254.236 153.719 254.387 154.029 254.541 C 154.318 255.418 154.318 255.418 154.541 256.504 C 154.618 256.86 154.694 257.214 154.773 257.58 C 154.94 258.638 154.94 258.638 154.94 260.459 C 155.24 260.459 155.54 260.459 155.85 260.459 C 156.147 261.169 156.44 261.88 156.732 262.592 C 156.977 263.186 156.977 263.186 157.229 263.792 C 157.671 265.011 157.671 265.011 157.9 266.271 C 157.974 266.605 158.049 266.94 158.126 267.286 C 158.426 267.436 158.726 267.586 159.036 267.741 C 159.321 269.135 159.321 269.135 159.492 270.472 C 159.792 270.472 160.092 270.472 160.401 270.472 C 160.571 270.911 160.74 271.35 160.914 271.802 C 161.853 273.991 163.165 275.903 164.498 277.869 C 164.741 278.233 164.984 278.598 165.235 278.975 C 166.488 280.884 166.488 280.884 167.992 282.59 C 168.595 283.217 168.595 283.217 168.595 284.127 C 168.895 284.127 169.196 284.127 169.505 284.127 C 169.628 284.493 169.749 284.859 169.874 285.236 C 170.053 285.621 170.231 286.006 170.415 286.403 C 170.865 286.553 171.316 286.703 171.781 286.858 C 172.39 287.614 172.997 288.374 173.601 289.134 C 174.086 289.551 174.579 289.959 175.081 290.357 C 175.701 290.878 175.701 290.878 176.332 291.41 C 176.332 291.71 176.332 292.01 176.332 292.32 C 176.741 292.517 176.741 292.517 177.158 292.718 C 178.153 293.23 178.153 293.23 179.518 294.141 C 179.518 294.441 179.518 294.741 179.518 295.051 C 179.791 295.098 180.063 295.144 180.344 295.192 C 181.512 295.56 181.845 296.012 182.705 296.872 C 183.747 297.52 184.812 298.102 185.891 298.692 C 185.891 298.993 185.891 299.293 185.891 299.602 C 186.492 299.752 187.092 299.902 187.711 300.058 C 187.711 300.358 187.711 300.658 187.711 300.968 C 188.247 301.122 188.247 301.122 188.792 301.281 C 191.287 302.183 193.597 303.432 195.95 304.649 C 197.114 305.207 198.318 305.584 199.545 305.975 C 199.545 306.275 199.545 306.576 199.545 306.885 C 200.897 307.035 202.249 307.186 203.642 307.34 C 203.642 307.64 203.642 307.941 203.642 308.25 C 204.844 308.4 206.045 308.551 207.283 308.706 C 207.283 309.006 207.283 309.306 207.283 309.616 C 207.696 309.643 208.108 309.672 208.534 309.699 C 211.616 309.911 214.683 310.156 217.752 310.526 C 217.752 310.826 217.752 311.127 217.752 311.437 C 224.21 311.437 230.669 311.437 237.323 311.437 C 237.323 311.136 237.323 310.836 237.323 310.526 C 237.863 310.476 238.402 310.427 238.956 310.375 C 244.175 309.87 244.175 309.87 249.228 308.517 C 250.068 308.25 250.068 308.25 251.433 308.25 C 251.433 307.95 251.433 307.65 251.433 307.34 C 253.086 307.189 254.738 307.04 256.44 306.885 C 256.44 314.695 256.44 322.506 256.44 330.554 C 251.865 332.079 251.865 332.079 249.841 332.43 C 248.455 332.589 248.455 332.589 247.338 333.284 C 245.691 333.547 244.041 333.754 242.387 333.967 C 241.03 334.042 241.03 334.042 240.509 334.65 C 239.719 334.698 238.926 334.712 238.134 334.716 C 237.373 334.72 237.373 334.72 236.596 334.724 C 235.766 334.726 235.766 334.726 234.918 334.727 C 234.069 334.728 234.069 334.728 233.201 334.731 C 231.998 334.734 230.794 334.734 229.591 334.734 C 228.361 334.734 227.131 334.738 225.9 334.744 C 224.126 334.752 222.355 334.754 220.58 334.754 C 220.033 334.758 219.487 334.761 218.923 334.764 C 216.08 334.757 213.648 334.552 210.924 333.74 C 210.371 333.665 209.818 333.589 209.246 333.512 C 207.822 333.297 206.789 332.907 205.463 332.375 C 204.696 332.163 203.924 331.967 203.15 331.787 C 202.725 331.687 202.302 331.588 201.865 331.485 C 201.428 331.385 200.991 331.283 200.541 331.18 C 200.096 331.075 199.65 330.971 199.19 330.863 C 198.096 330.606 197 330.351 195.904 330.098 C 195.904 329.798 195.904 329.497 195.904 329.188 C 194.552 329.038 193.201 328.887 191.808 328.732 C 191.808 328.432 191.808 328.132 191.808 327.822 C 191.438 327.79 191.069 327.756 190.687 327.723 C 188.615 327.265 186.992 326.351 185.151 325.319 C 184.473 324.942 183.794 324.568 183.114 324.195 C 182.816 324.029 182.519 323.862 182.213 323.691 C 181.321 323.262 180.484 323.02 179.518 322.815 C 179.518 322.515 179.518 322.215 179.518 321.905 C 178.767 321.755 178.017 321.605 177.243 321.45 C 177.243 321.15 177.243 320.85 177.243 320.54 C 176.642 320.39 176.041 320.24 175.422 320.084 C 175.422 319.784 175.422 319.484 175.422 319.174 C 174.671 319.024 173.92 318.874 173.146 318.719 C 173.146 318.419 173.146 318.118 173.146 317.81 C 172.245 317.508 171.344 317.208 170.415 316.898 C 170.415 316.598 170.415 316.298 170.415 315.988 C 170.143 315.941 169.87 315.894 169.591 315.846 C 168.452 315.487 167.968 315.092 167.229 314.167 C 167.229 313.867 167.229 313.567 167.229 313.257 C 166.628 313.107 166.027 312.957 165.409 312.802 C 165.409 312.501 165.409 312.201 165.409 311.892 C 165.143 311.77 164.878 311.647 164.605 311.522 C 163.576 310.975 162.766 310.372 161.881 309.616 C 161.602 309.381 161.322 309.146 161.034 308.904 C 160.401 308.25 160.401 308.25 160.401 307.34 C 160.128 307.221 159.855 307.102 159.573 306.979 C 158.52 306.396 158.01 305.861 157.272 304.922 C 156.389 303.843 155.529 302.934 154.427 302.077 C 153.053 300.91 152.198 299.794 151.299 298.237 C 151.299 297.936 151.299 297.636 151.299 297.327 C 150.848 297.177 150.397 297.027 149.933 296.872 C 149.282 295.985 148.671 295.07 148.084 294.141 C 147.016 292.245 147.016 292.245 145.381 290.954 C 144.918 290.048 144.465 289.136 144.015 288.224 C 143.715 287.773 143.415 287.323 143.106 286.858 C 142.217 285.525 141.523 284.204 140.829 282.762 C 140.595 282.315 140.595 282.315 140.356 281.86 C 139.489 280.194 138.791 278.735 138.554 276.845 C 138.254 276.845 137.953 276.845 137.643 276.845 C 136.644 274.987 135.925 273.149 135.286 271.15 C 134.882 269.924 134.431 268.721 133.974 267.513 C 133.285 265.643 132.77 263.814 132.406 261.855 C 132.201 260.879 132.201 260.879 131.742 259.872 C 131.264 258.62 131.015 257.475 130.8 256.154 C 130.723 255.685 130.646 255.216 130.566 254.732 C 130.489 254.247 130.413 253.761 130.332 253.26 C 130.254 252.78 130.176 252.3 130.093 251.806 C 129.414 247.629 128.922 243.605 128.903 239.373 C 128.901 238.926 128.898 238.479 128.895 238.018 C 128.892 237.074 128.888 236.128 128.886 235.183 C 128.882 233.771 128.868 232.359 128.854 230.947 C 128.809 222.534 129.948 214.501 131.727 206.295 C 132.027 206.295 132.327 206.295 132.636 206.295 C 132.674 205.73 132.712 205.168 132.75 204.588 C 133.222 200.368 134.953 196.455 136.734 192.639 C 137.001 192.035 137.001 192.035 137.274 191.418 C 138.332 189.035 139.474 186.748 140.768 184.484 C 141.5 183.143 142.078 181.767 142.65 180.351 C 142.951 180.351 143.252 180.351 143.561 180.351 C 143.561 179.9 143.561 179.449 143.561 178.985 C 144.015 178.53 144.471 178.074 144.927 177.62 C 145.239 177.075 145.542 176.524 145.836 175.97 C 146.747 174.434 146.747 174.434 148.113 173.978 C 148.671 172.609 148.671 172.609 149.022 171.247 C 149.323 171.247 149.624 171.247 149.933 171.247 C 150.056 170.994 150.178 170.74 150.303 170.479 C 151.336 168.465 152.375 166.886 154.029 165.33 C 155.316 164.076 156.538 162.801 157.699 161.432 C 159.822 158.939 159.822 158.939 160.857 158.048 C 161.307 158.048 161.758 158.048 162.223 158.048 C 162.373 157.597 162.523 157.146 162.678 156.682 C 164.707 154.862 164.707 154.862 165.864 154.862 C 165.864 154.561 165.864 154.261 165.864 153.951 C 167.899 152.13 167.899 152.13 169.05 152.13 C 169.05 151.83 169.05 151.53 169.05 151.221 C 170.052 150.494 171.046 149.826 172.094 149.172 C 172.379 148.988 172.664 148.805 172.957 148.616 C 174.494 147.64 175.971 146.821 177.698 146.214 C 177.698 145.913 177.698 145.612 177.698 145.303 C 178.219 145.106 178.219 145.106 178.75 144.904 C 180.042 144.409 180.042 144.409 181.339 143.482 C 182.584 142.842 183.855 142.256 185.123 141.662 C 185.633 141.419 185.633 141.419 186.153 141.171 C 190.914 138.93 190.914 138.93 192.718 138.93 C 192.718 138.63 192.718 138.33 192.718 138.02 C 193.92 137.87 195.122 137.72 196.359 137.565 C 196.359 137.265 196.359 136.965 196.359 136.656 C 196.718 136.578 197.077 136.5 197.445 136.42 C 200.038 135.844 202.552 135.214 205.065 134.351 C 207.4 133.622 209.639 133.214 212.061 132.965 C 212.434 132.927 212.807 132.889 213.191 132.849 C 217.437 132.45 221.677 132.421 225.939 132.439 Z" style="fill: rgb(255, 255, 255);"/>
  <path d="M 340.646 232.238 C 344.603 231.96 347.842 232.074 351.113 234.515 C 355.289 239.209 356.145 243.899 355.87 249.974 C 355.521 254.694 353.911 258.271 351.452 262.256 C 349.408 265.835 347.473 270.394 347.473 274.569 C 347.761 274.573 348.05 274.578 348.347 274.583 C 351.359 274.632 354.372 274.685 357.385 274.739 C 358.508 274.757 359.631 274.776 360.754 274.794 C 362.372 274.821 363.991 274.85 365.608 274.88 C 366.107 274.888 366.606 274.895 367.12 274.902 C 375.673 275.066 375.673 275.066 378.85 277.527 C 379.334 278.21 379.334 278.21 379.334 279.576 C 379.634 279.576 379.935 279.576 380.244 279.576 C 382.334 281.67 383.179 283.776 383.26 286.716 C 383.135 289.439 382.622 290.852 380.699 292.775 C 380.679 294.783 380.753 296.409 382.094 297.952 C 383.477 299.827 383.265 301.897 382.975 304.154 C 382.51 305.219 382.51 305.219 382.065 305.975 C 381.765 305.975 381.464 305.975 381.155 305.975 C 380.855 306.726 380.554 307.476 380.244 308.25 C 379.943 308.25 379.643 308.25 379.334 308.25 C 379.334 309.752 379.334 311.254 379.334 312.802 C 379.634 312.802 379.935 312.802 380.244 312.802 C 381.833 317.665 381.833 317.665 380.709 320.168 C 379.237 322.708 379.237 322.708 377.925 323.103 C 377.495 323.186 377.495 323.186 377.058 323.271 C 375.864 324.842 375.882 326.83 375.693 328.732 C 375.381 331.753 374.545 334.167 372.507 336.47 C 372.207 336.47 371.906 336.47 371.596 336.47 C 371.446 336.921 371.295 337.372 371.141 337.836 C 370.444 338.535 370.444 338.535 369.548 339.229 C 369.262 339.461 368.976 339.691 368.68 339.929 C 365.179 341.821 361.164 341.611 357.298 341.599 C 356.419 341.599 356.419 341.599 355.523 341.6 C 354.285 341.602 353.045 341.6 351.807 341.596 C 350.254 341.591 348.7 341.594 347.145 341.599 C 341.33 341.616 335.536 341.567 329.74 341.071 C 329.326 341.036 328.912 341.001 328.485 340.965 C 326.088 340.731 323.851 340.295 321.528 339.656 C 317.031 338.554 312.462 337.839 307.84 337.537 C 306.963 337.381 306.963 337.381 306.053 336.47 C 305.941 335.647 305.941 335.647 305.944 334.633 C 305.943 334.249 305.941 333.864 305.94 333.469 C 305.943 333.047 305.947 332.624 305.95 332.189 C 305.95 331.745 305.95 331.301 305.95 330.844 C 305.95 329.371 305.957 327.898 305.965 326.425 C 305.966 325.406 305.967 324.387 305.969 323.367 C 305.971 320.681 305.98 317.995 305.991 315.307 C 306.001 312.568 306.004 309.828 306.009 307.089 C 306.019 301.711 306.034 296.332 306.053 290.954 C 307.105 290.954 308.155 290.954 309.239 290.954 C 309.239 290.654 309.239 290.354 309.239 290.044 C 310.365 289.819 310.365 289.819 311.516 289.589 C 311.516 289.289 311.516 288.988 311.516 288.679 C 311.787 288.575 312.06 288.472 312.34 288.366 C 313.588 287.617 313.983 286.735 314.702 285.493 C 315.002 285.493 315.302 285.493 315.611 285.493 C 315.611 285.042 315.611 284.592 315.611 284.127 C 316.067 283.672 316.521 283.217 316.977 282.762 C 319.764 278.209 322.662 272.981 323.804 267.741 C 324.105 267.741 324.406 267.741 324.714 267.741 C 324.865 266.84 325.015 265.939 325.169 265.011 C 325.47 265.011 325.771 265.011 326.081 265.011 C 326.117 264.747 326.155 264.484 326.194 264.213 C 326.849 262.25 328.462 261.292 330.091 260.145 C 332.935 258.047 335.286 255.314 336.093 251.81 C 336.394 251.81 336.694 251.81 337.004 251.81 C 338.048 245.749 338.925 239.746 339.28 233.604 C 339.58 233.604 339.88 233.604 340.19 233.604 C 340.34 233.153 340.49 232.703 340.646 232.238 Z" style="fill: rgb(255, 255, 255);"/>
  <path d="M 182.249 193.55 C 191.112 193.55 199.973 193.55 209.104 193.55 C 209.104 193.7 209.104 193.85 209.104 194.005 C 211.056 194.305 213.009 194.606 215.022 194.916 C 215.022 195.216 215.022 195.516 215.022 195.826 C 216.373 196.051 216.373 196.051 217.752 196.281 C 217.752 196.581 217.752 196.882 217.752 197.191 C 218.071 197.229 218.39 197.266 218.718 197.305 C 221.395 198.003 222.953 199.593 224.579 201.743 C 224.88 201.893 225.18 202.043 225.489 202.198 C 225.794 202.957 226.097 203.715 226.4 204.474 C 226.7 204.624 227 204.774 227.31 204.929 C 227.594 206.323 227.594 206.323 227.765 207.66 C 228.066 207.66 228.366 207.66 228.675 207.66 C 229.057 210.637 229.201 213.536 229.188 216.536 C 229.19 216.939 229.191 217.342 229.193 217.757 C 229.187 221.799 229.11 225.075 227.054 228.625 C 226.762 229.138 226.472 229.65 226.171 230.179 C 225.946 230.558 225.722 230.937 225.489 231.329 C 225.189 231.329 224.889 231.329 224.579 231.329 C 224.354 232.004 224.354 232.004 224.124 232.694 C 223.315 233.524 223.315 233.524 222.332 234.372 C 222.008 234.656 221.685 234.939 221.353 235.231 C 220.483 235.88 220.483 235.88 219.572 235.88 C 219.97 238.719 220.637 240.963 222.105 243.426 C 225.783 249.624 225.783 249.624 225.944 253.176 C 226.245 253.176 226.546 253.176 226.855 253.176 C 227.042 253.648 227.228 254.12 227.42 254.605 C 227.668 255.229 227.916 255.853 228.164 256.477 C 228.286 256.786 228.409 257.097 228.536 257.416 C 229.028 258.653 229.52 259.872 230.125 261.058 C 230.633 262.104 230.589 262.954 230.496 264.1 C 229.792 264.804 229.119 264.63 228.139 264.651 C 227.734 264.658 227.33 264.668 226.914 264.677 C 225.061 264.703 223.208 264.725 221.357 264.74 C 220.378 264.749 219.4 264.765 218.423 264.786 C 217.015 264.816 215.61 264.83 214.202 264.837 C 213.764 264.85 213.328 264.863 212.877 264.876 C 211.709 264.873 210.692 264.843 209.559 264.555 C 208.102 262.94 207.514 261.506 207.169 259.377 C 207.101 258.98 207.034 258.582 206.963 258.172 C 206.919 257.875 206.873 257.579 206.828 257.273 C 206.528 257.273 206.227 257.273 205.918 257.273 C 205.692 255.695 205.692 255.695 205.463 254.087 C 205.162 254.087 204.862 254.087 204.552 254.087 C 204.101 251.608 204.101 251.608 203.642 249.08 C 203.341 249.08 203.041 249.08 202.731 249.08 C 202.573 248.63 202.414 248.18 202.251 247.718 C 202.041 247.128 201.831 246.539 201.622 245.951 C 201.518 245.654 201.413 245.358 201.305 245.052 C 200.673 242.886 200.673 242.886 199.24 241.288 C 197.888 240.776 196.778 240.798 195.335 240.83 C 194.845 240.838 194.354 240.846 193.849 240.855 C 193.476 240.866 193.103 240.876 192.718 240.887 C 192.706 241.711 192.697 242.536 192.69 243.361 C 192.685 243.821 192.679 244.28 192.673 244.754 C 192.693 246.383 192.693 246.383 192.945 248.127 C 193.326 251.322 193.22 254.544 193.201 257.756 C 193.192 260 193.183 262.243 193.173 264.555 C 186.414 264.555 179.655 264.555 172.691 264.555 C 172.691 264.255 172.691 263.955 172.691 263.645 C 172.39 263.645 172.09 263.645 171.781 263.645 C 171.769 261.42 171.761 259.194 171.756 256.969 C 171.753 256.215 171.75 255.461 171.747 254.707 C 171.741 253.611 171.739 252.516 171.736 251.421 C 171.735 251.094 171.731 250.765 171.729 250.428 C 171.729 248.444 171.836 246.495 172.007 244.518 C 172.301 240.908 172.302 237.307 172.297 233.688 C 172.297 232.964 172.297 232.241 172.298 231.518 C 172.299 230.012 172.298 228.505 172.295 226.999 C 172.293 225.084 172.293 223.17 172.297 221.254 C 172.299 219.763 172.298 218.273 172.297 216.782 C 172.297 216.077 172.297 215.371 172.298 214.666 C 172.302 211.027 172.245 207.424 171.883 203.798 C 171.724 202.012 171.731 200.234 171.753 198.443 C 171.754 198.098 171.757 197.754 171.759 197.4 C 171.764 196.572 171.772 195.744 171.781 194.916 C 172.897 194.358 173.625 194.408 174.871 194.416 C 175.299 194.418 175.728 194.418 176.169 194.42 C 176.617 194.424 177.065 194.428 177.527 194.431 C 177.979 194.434 178.432 194.436 178.896 194.438 C 180.014 194.443 181.132 194.451 182.249 194.46 C 182.249 194.16 182.249 193.86 182.249 193.55 Z M 193.173 209.481 C 193.173 209.781 193.173 210.081 193.173 210.391 C 192.873 210.391 192.572 210.391 192.263 210.391 C 191.653 215.531 191.221 221.217 192.263 226.321 C 193.992 227.186 196.079 226.9 197.981 226.919 C 198.421 226.933 198.86 226.945 199.312 226.959 C 202.285 226.985 204.748 226.597 207.283 224.956 C 209.26 222.201 208.998 218.666 208.649 215.398 C 208.208 213.994 207.794 213.365 206.828 212.212 C 205.866 211.741 205.866 211.741 205.007 211.756 C 205.007 211.456 205.007 211.156 205.007 210.846 C 203.691 210.188 202.364 210.194 200.91 210.063 C 200.001 209.936 200.001 209.936 199.545 209.481 C 198.475 209.447 197.402 209.442 196.331 209.452 C 195.744 209.457 195.156 209.46 194.551 209.464 C 194.096 209.469 193.642 209.475 193.173 209.481 Z" style="fill: rgb(255, 255, 255);"/>
  <path d="M 264.178 214.032 C 264.929 214.032 265.68 214.032 266.454 214.032 C 266.454 214.333 266.454 214.633 266.454 214.942 C 266.843 214.935 266.843 214.935 267.239 214.927 C 271.761 214.874 274.497 215.649 278.288 218.129 C 278.786 218.429 279.283 218.729 279.796 219.039 C 281.261 220.129 282.21 221.212 283.295 222.68 C 283.295 222.98 283.295 223.281 283.295 223.59 C 283.595 223.59 283.896 223.59 284.205 223.59 C 284.87 224.796 285.116 225.363 285.116 226.777 C 285.416 226.777 285.717 226.777 286.026 226.777 C 287.198 229.387 288.043 231.73 288.222 234.6 C 288.257 235.47 288.257 235.47 288.757 236.336 C 288.801 237.563 288.82 238.777 288.813 240.005 C 288.816 240.345 288.817 240.683 288.819 241.033 C 288.814 243.56 288.814 243.56 288.302 244.073 C 288.121 245.141 287.964 246.214 287.818 247.287 C 287.738 247.875 287.658 248.462 287.575 249.067 C 287.514 249.522 287.454 249.977 287.391 250.446 C 287.091 250.446 286.791 250.446 286.481 250.446 C 286.434 250.771 286.385 251.098 286.335 251.433 C 285.995 252.852 285.468 253.864 284.718 255.111 C 284.484 255.507 284.25 255.904 284.01 256.313 C 283.295 257.273 283.295 257.273 281.93 257.727 C 281.827 258.066 281.723 258.403 281.617 258.752 C 280.732 260.605 279.19 261.392 277.378 262.28 C 277.077 262.28 276.777 262.28 276.468 262.28 C 276.468 262.58 276.468 262.88 276.468 263.189 C 273.086 265.087 269.776 265.083 265.999 265.067 C 265.606 265.069 265.213 265.071 264.808 265.072 C 262.577 265.069 260.46 264.932 258.261 264.555 C 258.261 264.255 258.261 263.955 258.261 263.645 C 256.909 263.419 256.909 263.419 255.53 263.189 C 255.53 262.889 255.53 262.589 255.53 262.28 C 254.929 262.129 254.329 261.979 253.71 261.824 C 253.76 262.439 253.76 262.439 253.809 263.066 C 254.085 266.893 254.214 270.701 254.222 274.54 C 254.224 274.985 254.225 275.43 254.228 275.888 C 254.227 276.302 254.226 276.715 254.225 277.141 C 254.225 277.511 254.225 277.884 254.224 278.265 C 254.165 279.12 254.165 279.12 253.71 279.576 C 252.48 279.627 251.26 279.65 250.03 279.652 C 249.66 279.653 249.289 279.655 248.909 279.656 C 248.125 279.659 247.339 279.66 246.555 279.66 C 245.355 279.66 244.154 279.669 242.953 279.678 C 242.192 279.679 241.432 279.679 240.67 279.68 C 240.311 279.684 239.951 279.687 239.579 279.69 C 237.827 279.683 236.996 279.66 235.503 278.665 C 235.33 277.815 235.33 277.815 235.328 276.761 C 235.322 276.163 235.322 276.163 235.315 275.552 C 235.317 275.113 235.319 274.673 235.321 274.221 C 235.318 273.759 235.315 273.297 235.312 272.821 C 235.302 271.284 235.302 269.747 235.302 268.21 C 235.297 267.14 235.291 266.069 235.284 264.997 C 235.268 262.166 235.258 259.335 235.252 256.503 C 235.24 251.998 235.222 247.492 235.197 242.986 C 235.189 241.422 235.186 239.858 235.186 238.293 C 235.17 233.646 235.085 229.07 234.454 224.461 C 234.144 222.182 234.091 219.968 234.137 217.673 C 234.438 217.673 234.739 217.673 235.048 217.673 C 235.048 217.373 235.048 217.073 235.048 216.763 C 237.526 216.538 237.526 216.538 240.054 216.308 C 240.054 216.008 240.054 215.707 240.054 215.398 C 250.408 214.562 250.408 214.562 252.344 215.853 C 252.657 217.503 252.657 217.503 252.8 219.039 C 253.232 218.814 253.663 218.588 254.108 218.357 C 255.53 217.673 255.53 217.673 256.44 217.673 C 256.44 217.373 256.44 217.073 256.44 216.763 C 257.192 216.613 257.943 216.462 258.717 216.308 C 258.717 216.008 258.717 215.707 258.717 215.398 C 260.519 215.098 262.321 214.797 264.178 214.487 C 264.178 214.337 264.178 214.187 264.178 214.032 Z M 256.184 232.551 C 253.912 235.178 253.999 238.337 254.048 241.634 C 254.225 243.934 254.78 245.418 256.242 247.23 C 256.883 247.804 256.883 247.804 257.806 247.715 C 257.806 248.015 257.806 248.315 257.806 248.624 C 259.21 249.092 260.205 249.14 261.675 249.137 C 262.112 249.138 262.548 249.139 262.998 249.14 C 264.231 249.13 264.231 249.13 265.544 248.624 C 265.544 248.324 265.544 248.023 265.544 247.715 C 265.823 247.673 266.103 247.633 266.39 247.591 C 267.402 247.343 267.402 247.343 267.941 246.542 C 269.561 243.065 270.003 239.16 268.735 235.487 C 267.761 233.462 267.761 233.462 265.921 232.361 C 265.646 232.321 265.372 232.28 265.089 232.238 C 265.089 231.938 265.089 231.638 265.089 231.329 C 263.852 230.71 262.855 230.813 261.476 230.816 C 260.993 230.816 260.51 230.814 260.013 230.812 C 258.125 230.901 257.508 231.164 256.184 232.551 Z" style="fill: rgb(255, 255, 255);"/>
  <path d="M 288.265 288.074 C 288.769 288.075 288.769 288.075 289.284 288.077 C 289.99 288.08 290.697 288.086 291.404 288.096 C 292.486 288.11 293.566 288.114 294.649 288.116 C 295.337 288.121 296.026 288.126 296.714 288.131 C 297.036 288.133 297.359 288.135 297.692 288.137 C 300.917 288.183 300.917 288.183 302.241 289.304 C 303.286 290.54 303.38 291.715 303.392 293.266 C 303.396 293.643 303.401 294.02 303.404 294.409 C 303.406 294.82 303.408 295.233 303.41 295.658 C 303.415 296.311 303.415 296.311 303.421 296.977 C 303.432 298.42 303.44 299.861 303.447 301.304 C 303.449 301.796 303.452 302.289 303.454 302.796 C 303.467 305.403 303.475 308.009 303.482 310.614 C 303.489 313.307 303.51 315.999 303.533 318.692 C 303.548 320.761 303.553 322.831 303.556 324.901 C 303.559 325.894 303.566 326.886 303.576 327.878 C 303.591 329.267 303.591 330.656 303.588 332.046 C 303.595 332.455 303.603 332.865 303.611 333.287 C 303.591 335.249 303.479 336.53 302.22 338.088 C 299.772 340.409 296.442 339.773 293.235 339.791 C 292.585 339.797 291.935 339.805 291.285 339.819 C 284.449 339.961 284.449 339.961 281.93 337.836 C 281.158 336.571 280.905 335.628 280.904 334.156 C 280.901 333.789 280.899 333.424 280.896 333.047 C 280.898 332.649 280.9 332.251 280.902 331.841 C 280.9 331.418 280.899 330.997 280.897 330.562 C 280.892 329.166 280.896 327.771 280.899 326.374 C 280.898 325.405 280.898 324.435 280.896 323.463 C 280.895 321.429 280.896 319.394 280.901 317.359 C 280.906 314.753 280.903 312.148 280.898 309.541 C 280.894 307.536 280.896 305.532 280.898 303.527 C 280.898 302.567 280.898 301.606 280.896 300.646 C 280.893 299.301 280.897 297.957 280.902 296.612 C 280.9 296.216 280.898 295.821 280.896 295.412 C 280.91 293.307 281.042 291.542 281.93 289.589 C 283.955 288.161 285.859 288.032 288.265 288.074 Z" style="fill: rgb(255, 255, 255);"/>
  <path fill="#2A2A2A" style=""/>
  <path fill="#2B2B2B" style=""/>
</svg>