<?xml version="1.0" encoding="utf-8"?>
<svg viewBox="0 0 500 500" xmlns="http://www.w3.org/2000/svg">
  <path d="M 458.009 250 C 458.009 307.44 434.726 359.441 397.084 397.084 C 359.441 434.728 307.44 458.009 250 458.009 C 192.56 458.009 140.56 434.727 102.917 397.085 C 65.273 359.442 41.991 307.44 41.991 250 C 41.991 192.56 65.298 140.582 102.916 102.915 C 140.583 65.295 192.56 41.991 250 41.991 C 307.44 41.991 359.44 65.273 397.083 102.915 C 434.727 140.558 458.009 192.56 458.009 250 Z" style="fill: rgb(138, 15, 0); stroke-width: 12px; stroke-linecap: round;"/>
  <path d="M 337.369 130.721 C 337.49 130.78 337.611 130.839 337.736 130.9 C 340.214 132.118 342.315 133.704 344.318 135.605 C 344.491 135.767 344.664 135.93 344.842 136.098 C 347.293 138.472 349.157 141.034 349.261 144.527 C 349.3 145.696 349.525 146.69 349.918 147.791 C 352.392 154.709 352.264 162.33 349.202 169.039 C 347.64 172.275 345.382 174.774 342.849 177.282 C 342.68 177.451 342.51 177.619 342.335 177.793 C 341.8 178.327 341.263 178.861 340.726 179.393 C 340.017 180.098 339.308 180.803 338.6 181.508 C 338.439 181.667 338.279 181.826 338.113 181.99 C 337.961 182.141 337.809 182.293 337.652 182.449 C 337.454 182.646 337.454 182.646 337.251 182.847 C 336.885 183.231 336.536 183.622 336.189 184.024 C 335.487 184.832 334.742 185.589 333.983 186.343 C 333.838 186.488 333.693 186.632 333.544 186.781 C 333.233 187.092 332.921 187.403 332.609 187.713 C 332.114 188.205 331.619 188.698 331.126 189.192 C 329.988 190.327 328.849 191.462 327.71 192.596 C 326.582 193.721 325.454 194.845 324.327 195.97 C 323.842 196.454 323.356 196.938 322.87 197.421 C 322.57 197.72 322.271 198.019 321.971 198.318 C 321.838 198.45 321.704 198.583 321.566 198.72 C 320.827 199.459 320.125 200.218 319.443 201.01 C 319.07 201.437 318.677 201.841 318.276 202.241 C 318.118 202.399 317.96 202.557 317.797 202.719 C 317.631 202.884 317.466 203.049 317.295 203.219 C 317.122 203.392 316.948 203.565 316.77 203.743 C 316.314 204.198 315.858 204.652 315.401 205.107 C 314.934 205.572 314.467 206.038 314 206.504 C 313.087 207.415 312.174 208.326 311.26 209.235 C 312.28 209.687 312.28 209.687 313.342 210.02 C 316.898 210.958 318.837 212.956 320.682 216.105 C 323.538 221.425 324.041 226.978 323.281 232.902 C 323.405 232.922 323.529 232.943 323.656 232.963 C 329.548 233.973 334.95 236.172 338.543 241.132 C 341.567 245.486 343.864 251.727 342.91 257.097 C 342.863 257.301 342.863 257.301 342.816 257.508 C 342.921 257.522 343.027 257.536 343.136 257.551 C 348.043 258.319 352.757 260.228 356.34 263.707 C 356.452 263.808 356.565 263.909 356.681 264.013 C 360.78 267.808 363.025 273.998 363.29 279.485 C 363.588 287.477 360.539 294.651 355.213 300.522 C 354.131 301.663 353.009 302.765 351.894 303.871 C 351.575 304.189 351.257 304.506 350.939 304.823 C 350.108 305.652 349.276 306.479 348.443 307.307 C 347.108 308.633 345.775 309.962 344.441 311.29 C 343.978 311.751 343.515 312.212 343.051 312.673 C 342.765 312.957 342.479 313.241 342.194 313.526 C 342.067 313.652 341.939 313.778 341.808 313.908 C 341.232 314.483 340.675 315.064 340.146 315.683 C 339.199 316.779 338.16 317.786 337.134 318.807 C 336.903 319.038 336.671 319.269 336.44 319.5 C 335.945 319.995 335.449 320.489 334.953 320.984 C 334.168 321.767 333.383 322.55 332.599 323.334 C 330.792 325.138 328.984 326.941 327.177 328.745 C 325.519 330.399 323.862 332.053 322.205 333.708 C 321.426 334.485 320.647 335.263 319.868 336.04 C 319.382 336.524 318.896 337.009 318.411 337.494 C 318.187 337.718 317.962 337.942 317.738 338.165 C 316.7 339.198 315.667 340.23 314.718 341.349 C 314.251 341.893 313.745 342.4 313.24 342.909 C 313.13 343.02 313.019 343.131 312.906 343.246 C 312.674 343.48 312.442 343.713 312.21 343.946 C 311.86 344.297 311.512 344.651 311.164 345.005 C 308.2 347.996 308.2 347.996 306.259 348.69 C 306.023 348.776 306.023 348.776 305.782 348.865 C 305.668 348.904 305.554 348.943 305.437 348.983 C 305.809 349.045 306.181 349.107 306.564 349.171 C 306.277 349.847 305.877 350.28 305.359 350.797 C 305.187 350.97 305.015 351.142 304.838 351.32 C 304.65 351.507 304.462 351.693 304.273 351.881 C 304.079 352.074 303.886 352.268 303.692 352.462 C 303.285 352.868 302.879 353.273 302.471 353.678 C 301.952 354.194 301.434 354.711 300.917 355.228 C 300.517 355.629 300.116 356.029 299.715 356.428 C 299.524 356.618 299.333 356.809 299.143 356.999 C 298.079 358.061 297.005 359.095 295.858 360.065 C 295.738 360.167 295.618 360.269 295.495 360.374 C 292.703 362.747 289.697 364.73 286.466 366.452 C 286.352 366.513 286.239 366.575 286.122 366.639 C 279.178 370.409 271.219 372.181 263.351 372.145 C 263.192 372.145 263.033 372.144 262.868 372.144 C 252.643 372.102 242.52 368.952 234.249 362.883 C 234.139 362.802 234.029 362.722 233.916 362.64 C 232.616 361.682 231.392 360.66 230.208 359.56 C 229.797 359.179 229.379 358.81 228.954 358.445 C 227.942 357.563 226.997 356.624 226.125 355.604 C 225.545 354.929 224.926 354.304 224.293 353.679 C 223.561 352.956 222.864 352.22 222.197 351.436 C 221.672 350.848 221.106 350.3 220.545 349.747 C 219.939 349.146 219.376 348.523 218.823 347.874 C 218.38 347.379 217.91 346.914 217.437 346.447 C 216.739 345.758 216.078 345.051 215.442 344.305 C 214.999 343.81 214.529 343.345 214.057 342.878 C 213.358 342.189 212.697 341.483 212.061 340.736 C 211.618 340.241 211.148 339.776 210.675 339.31 C 209.977 338.621 209.316 337.914 208.68 337.167 C 208.237 336.672 207.767 336.207 207.294 335.741 C 206.596 335.052 205.935 334.345 205.299 333.598 C 204.856 333.104 204.386 332.638 203.914 332.172 C 203.215 331.483 202.554 330.776 201.918 330.03 C 201.475 329.535 201.005 329.069 200.532 328.603 C 199.834 327.914 199.173 327.207 198.537 326.461 C 198.094 325.966 197.624 325.501 197.151 325.034 C 196.453 324.345 195.792 323.638 195.156 322.892 C 194.713 322.397 194.243 321.932 193.771 321.465 C 193.072 320.776 192.411 320.07 191.775 319.323 C 191.332 318.828 190.862 318.363 190.389 317.897 C 189.691 317.208 189.03 316.501 188.394 315.754 C 187.951 315.26 187.481 314.794 187.009 314.328 C 186.427 313.754 185.859 313.178 185.33 312.555 C 184.763 311.89 184.154 311.278 183.534 310.665 C 182.801 309.942 182.104 309.207 181.437 308.422 C 180.912 307.835 180.348 307.288 179.787 306.735 C 179.164 306.117 178.58 305.477 178.013 304.808 C 177.709 304.465 177.388 304.157 177.053 303.844 C 175.028 301.833 174.338 299.263 173.909 296.521 C 173.872 296.299 173.836 296.078 173.799 295.85 C 173.699 295.242 173.602 294.635 173.505 294.027 C 173.4 293.369 173.292 292.711 173.185 292.053 C 173 290.915 172.816 289.777 172.632 288.638 C 172.342 286.837 172.048 285.037 171.752 283.237 C 171.651 282.619 171.55 282.002 171.449 281.385 C 171.424 281.231 171.399 281.077 171.373 280.918 C 171.086 279.166 170.8 277.415 170.514 275.663 C 170.488 275.503 170.462 275.343 170.435 275.178 C 170.012 272.584 169.593 269.99 169.174 267.396 C 168.743 264.727 168.308 262.059 167.868 259.392 C 167.597 257.75 167.33 256.106 167.069 254.462 C 166.89 253.336 166.705 252.209 166.517 251.084 C 166.409 250.436 166.303 249.787 166.203 249.137 C 165.716 245.521 165.716 245.521 163.623 242.67 C 163.345 242.337 163.07 242.001 162.802 241.66 C 162.184 240.904 161.556 240.16 160.923 239.418 C 160.209 238.58 159.52 237.728 158.845 236.859 C 158.042 235.824 157.205 234.825 156.348 233.834 C 155.702 233.087 155.078 232.327 154.466 231.552 C 153.027 229.751 151.549 227.983 150.056 226.228 C 149.426 225.485 148.814 224.73 148.209 223.968 C 146.901 222.325 145.553 220.713 144.218 219.092 C 143.759 218.536 143.301 217.979 142.844 217.422 C 142.621 217.151 142.398 216.879 142.175 216.608 C 142.066 216.475 141.957 216.342 141.845 216.206 C 141.253 215.486 140.654 214.776 140.044 214.072 C 137.624 211.269 136.475 208.674 136.723 204.945 C 137.114 201.01 140.634 197.413 143.244 194.69 C 143.428 194.498 143.611 194.305 143.792 194.111 C 148.926 188.624 155.694 185.386 163.06 184.254 C 163.186 184.234 163.312 184.214 163.442 184.194 C 177.675 182.297 192.774 188.732 203.903 197.159 C 205.532 198.406 207.093 199.708 208.602 201.098 C 208.993 201.456 209.39 201.802 209.795 202.145 C 211.492 203.621 213.077 205.262 214.526 206.981 C 214.692 207.171 214.859 207.361 215.026 207.551 C 217.6 210.49 219.887 213.677 222.039 216.937 C 222.935 216.193 223.763 215.413 224.574 214.577 C 224.951 214.21 225.333 213.868 225.732 213.525 C 226.536 212.824 227.289 212.083 228.038 211.325 C 228.174 211.188 228.31 211.052 228.45 210.911 C 228.881 210.478 229.311 210.044 229.74 209.611 C 230.307 209.039 230.875 208.468 231.443 207.897 C 231.633 207.704 231.633 207.704 231.828 207.507 C 232.429 206.903 233.037 206.32 233.682 205.763 C 234.483 205.072 235.225 204.332 235.967 203.578 C 236.251 203.291 236.536 203.004 236.82 202.717 C 237.263 202.27 237.706 201.822 238.148 201.373 C 238.579 200.937 239.01 200.502 239.442 200.067 C 239.641 199.864 239.641 199.864 239.845 199.657 C 239.968 199.533 240.091 199.409 240.217 199.282 C 240.325 199.173 240.433 199.063 240.545 198.95 C 240.823 198.717 240.823 198.717 241.198 198.717 C 241.198 198.593 241.198 198.469 241.198 198.341 C 241.477 198.066 241.477 198.066 241.861 197.748 C 242.651 197.076 243.382 196.363 244.108 195.624 C 244.367 195.363 244.626 195.102 244.884 194.841 C 245.287 194.434 245.689 194.027 246.09 193.619 C 246.481 193.222 246.874 192.826 247.266 192.431 C 247.387 192.308 247.507 192.184 247.632 192.058 C 247.744 191.945 247.855 191.833 247.97 191.717 C 248.068 191.618 248.167 191.518 248.268 191.416 C 248.524 191.203 248.524 191.203 248.899 191.203 C 248.899 191.08 248.899 190.955 248.899 190.828 C 249.176 190.555 249.176 190.555 249.558 190.239 C 250.377 189.542 251.137 188.799 251.893 188.034 C 252.029 187.897 252.165 187.76 252.305 187.619 C 252.736 187.187 253.165 186.753 253.595 186.32 C 254.162 185.748 254.73 185.177 255.297 184.606 C 255.488 184.413 255.488 184.413 255.683 184.215 C 256.404 183.491 257.146 182.809 257.919 182.142 C 258.554 181.579 259.145 180.974 259.739 180.369 C 260.007 180.099 260.274 179.829 260.541 179.56 C 260.957 179.139 261.373 178.718 261.788 178.297 C 262.192 177.887 262.597 177.478 263.003 177.07 C 263.19 176.879 263.19 176.879 263.381 176.684 C 263.554 176.51 263.554 176.51 263.731 176.332 C 263.832 176.229 263.934 176.126 264.038 176.021 C 264.302 175.801 264.302 175.801 264.677 175.801 C 264.677 175.677 264.677 175.553 264.677 175.426 C 264.957 175.15 264.957 175.15 265.341 174.832 C 266.129 174.161 266.862 173.45 267.589 172.714 C 267.716 172.585 267.844 172.457 267.976 172.324 C 268.379 171.918 268.783 171.512 269.185 171.105 C 269.717 170.569 270.249 170.033 270.782 169.497 C 270.96 169.316 270.96 169.316 271.143 169.132 C 271.724 168.547 272.315 167.984 272.939 167.445 C 273.71 166.78 274.428 166.071 275.143 165.347 C 275.275 165.214 275.407 165.082 275.543 164.945 C 275.96 164.526 276.376 164.106 276.793 163.686 C 277.342 163.132 277.891 162.578 278.442 162.025 C 278.565 161.9 278.688 161.775 278.815 161.647 C 279.406 161.053 280.006 160.48 280.641 159.932 C 281.426 159.254 282.157 158.53 282.885 157.793 C 283.022 157.656 283.157 157.519 283.298 157.378 C 283.728 156.945 284.158 156.512 284.588 156.079 C 285.154 155.507 285.722 154.935 286.29 154.365 C 286.481 154.172 286.481 154.172 286.675 153.974 C 287.277 153.37 287.886 152.786 288.532 152.228 C 289.318 151.551 290.046 150.826 290.773 150.086 C 291.049 149.808 291.325 149.53 291.601 149.252 C 292.03 148.817 292.459 148.383 292.888 147.948 C 293.305 147.525 293.723 147.103 294.142 146.682 C 294.271 146.55 294.4 146.419 294.533 146.284 C 294.652 146.164 294.771 146.044 294.894 145.92 C 294.999 145.814 295.104 145.708 295.211 145.599 C 295.482 145.372 295.482 145.372 295.858 145.372 C 295.858 145.248 295.858 145.124 295.858 144.996 C 296.137 144.721 296.137 144.721 296.521 144.403 C 297.311 143.731 298.041 143.019 298.767 142.279 C 299.026 142.019 299.285 141.757 299.544 141.496 C 299.946 141.089 300.348 140.682 300.749 140.275 C 301.141 139.878 301.533 139.482 301.925 139.086 C 302.046 138.963 302.167 138.84 302.291 138.713 C 302.403 138.601 302.515 138.488 302.63 138.372 C 302.728 138.273 302.826 138.173 302.927 138.071 C 303.183 137.859 303.183 137.859 303.559 137.859 C 303.559 137.735 303.559 137.611 303.559 137.483 C 303.815 137.231 303.815 137.231 304.181 136.932 C 304.828 136.386 305.408 135.809 305.989 135.194 C 313.936 127.038 327.455 125.883 337.369 130.721 Z M 313.001 154.908 C 312.889 155.021 312.776 155.134 312.661 155.25 C 312.448 155.465 312.235 155.68 312.023 155.896 C 311.302 156.621 311.302 156.621 310.884 156.83 C 310.884 156.954 310.884 157.078 310.884 157.206 C 310.775 157.254 310.666 157.302 310.553 157.351 C 310.091 157.605 309.787 157.883 309.416 158.258 C 309.278 158.397 309.14 158.535 308.998 158.678 C 308.851 158.828 308.703 158.978 308.551 159.133 C 308.397 159.288 308.243 159.443 308.085 159.602 C 307.593 160.098 307.102 160.595 306.611 161.091 C 306.123 161.585 305.634 162.078 305.145 162.571 C 304.841 162.877 304.537 163.184 304.234 163.491 C 303.466 164.267 302.68 165.004 301.853 165.716 C 301.25 166.248 300.689 166.818 300.125 167.39 C 300.001 167.514 299.878 167.638 299.751 167.766 C 299.36 168.159 298.97 168.552 298.581 168.945 C 298.067 169.464 297.553 169.983 297.037 170.501 C 296.922 170.617 296.808 170.734 296.689 170.854 C 296.119 171.427 295.539 171.978 294.926 172.506 C 294.139 173.186 293.407 173.911 292.676 174.651 C 292.54 174.787 292.404 174.924 292.264 175.065 C 291.833 175.498 291.404 175.931 290.974 176.365 C 290.407 176.937 289.84 177.508 289.272 178.079 C 289.081 178.272 289.081 178.272 288.886 178.469 C 288.167 179.192 287.425 179.874 286.653 180.54 C 286.004 181.116 285.398 181.733 284.789 182.35 C 284.587 182.553 284.587 182.553 284.381 182.76 C 283.956 183.187 283.532 183.615 283.108 184.042 C 282.546 184.61 281.983 185.177 281.419 185.743 C 281.291 185.873 281.162 186.004 281.029 186.138 C 280.909 186.258 280.79 186.378 280.667 186.502 C 280.563 186.607 280.458 186.713 280.35 186.822 C 280.08 187.071 280.08 187.071 279.704 187.259 C 279.704 187.383 279.704 187.507 279.704 187.635 C 279.594 187.683 279.484 187.732 279.371 187.782 C 278.922 188.027 278.629 188.29 278.271 188.653 C 278.14 188.784 278.01 188.915 277.875 189.05 C 277.666 189.263 277.666 189.263 277.453 189.48 C 277.307 189.626 277.162 189.773 277.012 189.924 C 276.547 190.392 276.083 190.862 275.619 191.333 C 275.157 191.799 274.695 192.266 274.233 192.731 C 273.946 193.021 273.659 193.311 273.373 193.602 C 272.626 194.355 271.862 195.067 271.059 195.759 C 270.411 196.332 269.806 196.949 269.198 197.565 C 269.064 197.7 268.929 197.835 268.791 197.975 C 268.366 198.402 267.942 198.829 267.518 199.257 C 266.956 199.824 266.393 200.391 265.829 200.958 C 265.7 201.088 265.571 201.219 265.439 201.353 C 265.319 201.473 265.2 201.593 265.077 201.716 C 264.92 201.875 264.92 201.875 264.76 202.036 C 264.49 202.286 264.49 202.286 264.114 202.473 C 264.114 202.597 264.114 202.721 264.114 202.849 C 264.004 202.898 263.894 202.946 263.781 202.997 C 263.332 203.242 263.039 203.504 262.68 203.867 C 262.55 203.998 262.42 204.13 262.285 204.265 C 262.076 204.477 262.076 204.477 261.863 204.694 C 261.717 204.841 261.572 204.987 261.422 205.138 C 260.957 205.607 260.492 206.077 260.028 206.547 C 259.567 207.014 259.105 207.48 258.643 207.946 C 258.356 208.236 258.069 208.526 257.783 208.816 C 257.036 209.569 256.271 210.282 255.468 210.973 C 254.82 211.548 254.215 212.165 253.607 212.781 C 253.471 212.917 253.335 213.054 253.194 213.195 C 252.764 213.628 252.334 214.061 251.905 214.495 C 251.338 215.067 250.77 215.638 250.202 216.209 C 250.012 216.402 250.012 216.402 249.817 216.599 C 249.097 217.322 248.356 218.004 247.583 218.67 C 246.934 219.247 246.328 219.864 245.718 220.482 C 245.582 220.619 245.446 220.755 245.306 220.896 C 244.875 221.329 244.445 221.762 244.016 222.196 C 243.449 222.768 242.882 223.339 242.314 223.91 C 242.123 224.103 242.123 224.103 241.928 224.3 C 241.207 225.024 240.465 225.707 239.692 226.374 C 239.058 226.936 238.465 227.539 237.87 228.142 C 237.738 228.274 237.606 228.407 237.47 228.544 C 237.053 228.963 236.637 229.383 236.221 229.803 C 235.672 230.357 235.122 230.911 234.571 231.464 C 234.386 231.651 234.386 231.651 234.198 231.842 C 233.479 232.566 232.736 233.247 231.963 233.914 C 231.499 234.322 231.069 234.758 230.641 235.203 C 230.468 235.379 230.296 235.556 230.119 235.738 C 229.853 236.01 229.589 236.282 229.325 236.557 C 227.187 238.781 224.959 240.38 221.802 240.514 C 219.05 240.557 216.793 239.86 214.714 237.974 C 213.611 236.805 212.717 235.485 211.814 234.161 C 209.62 230.967 207.227 227.891 204.758 224.906 C 204.388 224.457 204.027 224.002 203.667 223.546 C 201.88 221.312 199.973 219.192 197.997 217.124 C 197.828 216.947 197.659 216.771 197.485 216.589 C 196.408 215.486 195.264 214.506 194.052 213.556 C 193.863 213.405 193.673 213.254 193.478 213.098 C 185.825 207.061 175.883 202.282 165.918 203.095 C 163.238 203.43 161.122 204.236 159.144 206.072 C 158.892 206.41 158.892 206.41 158.916 206.844 C 159.21 207.6 159.711 208.113 160.254 208.707 C 160.48 208.961 160.705 209.214 160.93 209.468 C 161.04 209.59 161.149 209.712 161.261 209.838 C 161.619 210.246 161.961 210.664 162.297 211.09 C 162.955 211.925 163.628 212.747 164.304 213.567 C 164.416 213.703 164.528 213.839 164.644 213.979 C 164.875 214.26 165.107 214.54 165.338 214.821 C 165.914 215.518 166.488 216.215 167.063 216.913 C 167.174 217.048 167.285 217.182 167.399 217.321 C 168.121 218.198 168.842 219.078 169.561 219.958 C 170.354 220.926 171.151 221.892 171.947 222.858 C 172.405 223.414 172.863 223.97 173.32 224.528 C 174.33 225.757 175.342 226.983 176.372 228.195 C 177.066 229.01 177.743 229.836 178.406 230.676 C 178.756 231.11 179.11 231.539 179.469 231.965 C 181.871 234.83 183.355 237.255 183.957 241 C 183.993 241.217 184.029 241.434 184.067 241.658 C 184.166 242.255 184.264 242.851 184.361 243.448 C 184.467 244.095 184.575 244.741 184.683 245.387 C 184.869 246.504 185.053 247.621 185.237 248.739 C 185.502 250.356 185.77 251.972 186.038 253.589 C 186.474 256.214 186.908 258.839 187.341 261.464 C 187.367 261.621 187.393 261.778 187.42 261.939 C 187.446 262.096 187.472 262.253 187.498 262.415 C 187.866 264.644 188.234 266.873 188.603 269.102 C 188.629 269.259 188.655 269.416 188.681 269.578 C 189.114 272.195 189.548 274.812 189.982 277.429 C 190.249 279.042 190.516 280.655 190.781 282.268 C 190.963 283.372 191.146 284.476 191.329 285.581 C 191.434 286.217 191.539 286.855 191.644 287.491 C 191.757 288.182 191.872 288.872 191.987 289.563 C 192.019 289.764 192.052 289.965 192.086 290.173 C 192.325 291.949 192.325 291.949 193.262 293.412 C 193.415 293.561 193.415 293.561 193.572 293.712 C 193.68 293.813 193.788 293.914 193.899 294.018 C 194.123 294.234 194.346 294.451 194.57 294.667 C 194.676 294.77 194.782 294.873 194.893 294.979 C 195.234 295.317 195.55 295.671 195.86 296.038 C 196.468 296.754 197.132 297.409 197.8 298.068 C 198.29 298.554 198.759 299.046 199.206 299.571 C 199.772 300.236 200.381 300.848 201.002 301.461 C 201.734 302.185 202.431 302.92 203.098 303.704 C 203.624 304.292 204.189 304.84 204.75 305.393 C 205.356 305.995 205.919 306.618 206.473 307.266 C 206.916 307.761 207.385 308.227 207.858 308.693 C 208.439 309.266 209.007 309.843 209.536 310.466 C 210.103 311.13 210.712 311.742 211.333 312.356 C 212.065 313.079 212.762 313.814 213.429 314.599 C 213.954 315.187 214.52 315.734 215.081 316.288 C 215.687 316.889 216.25 317.512 216.803 318.161 C 217.247 318.655 217.716 319.121 218.189 319.587 C 218.77 320.161 219.338 320.737 219.867 321.36 C 220.434 322.025 221.043 322.637 221.664 323.25 C 222.396 323.973 223.093 324.708 223.76 325.493 C 224.285 326.081 224.85 326.629 225.412 327.182 C 226.018 327.783 226.581 328.406 227.134 329.055 C 227.577 329.55 228.047 330.015 228.519 330.481 C 229.218 331.171 229.879 331.878 230.515 332.624 C 230.958 333.119 231.428 333.584 231.901 334.05 C 232.482 334.624 233.05 335.2 233.579 335.823 C 234.146 336.488 234.754 337.1 235.375 337.713 C 236.108 338.436 236.804 339.171 237.472 339.956 C 237.997 340.544 238.562 341.091 239.122 341.644 C 239.624 342.142 240.105 342.647 240.564 343.184 C 245.692 349.132 253.301 352.648 261.08 353.277 C 269.493 353.827 277.462 350.897 283.779 345.395 C 285.456 343.9 287.023 342.282 288.609 340.692 C 289.123 340.177 289.637 339.664 290.152 339.15 C 291.012 338.29 291.872 337.43 292.731 336.569 C 293.724 335.573 294.719 334.579 295.715 333.585 C 296.573 332.729 297.43 331.872 298.287 331.014 C 298.798 330.503 299.308 329.992 299.82 329.482 C 300.298 329.005 300.776 328.526 301.253 328.047 C 301.512 327.787 301.772 327.528 302.032 327.269 C 302.185 327.116 302.338 326.962 302.495 326.803 C 302.628 326.67 302.762 326.536 302.9 326.398 C 303.224 326.092 303.224 326.092 303.183 325.692 C 303.369 325.63 303.555 325.568 303.747 325.504 C 303.747 325.38 303.747 325.256 303.747 325.128 C 303.871 325.128 303.994 325.128 304.122 325.128 C 304.382 324.872 304.382 324.872 304.657 324.524 C 305.633 323.378 306.709 322.332 307.776 321.271 C 308.011 321.037 308.247 320.802 308.482 320.567 C 308.985 320.065 309.49 319.562 309.994 319.06 C 310.791 318.267 311.587 317.473 312.383 316.678 C 314.645 314.421 316.908 312.164 319.172 309.908 C 320.425 308.66 321.677 307.412 322.927 306.163 C 323.719 305.372 324.512 304.583 325.305 303.794 C 325.797 303.304 326.287 302.814 326.778 302.324 C 327.006 302.096 327.235 301.868 327.464 301.641 C 327.775 301.332 328.085 301.022 328.395 300.711 C 328.569 300.538 328.743 300.364 328.923 300.185 C 329.333 299.816 329.333 299.816 329.292 299.395 C 329.4 299.353 329.509 299.31 329.621 299.266 C 330.155 298.954 330.419 298.57 330.795 298.08 C 331.104 297.764 331.418 297.452 331.734 297.141 C 331.898 296.979 332.062 296.818 332.231 296.651 C 332.411 296.475 332.591 296.298 332.771 296.122 C 333.781 295.131 334.788 294.136 335.793 293.14 C 336.4 292.539 337.007 291.94 337.617 291.343 C 338.21 290.762 338.801 290.178 339.389 289.593 C 339.612 289.372 339.836 289.152 340.061 288.933 C 342.457 286.599 343.784 284.104 343.837 280.694 C 343.822 279.24 343.733 277.763 342.643 276.687 C 340.733 275.297 338.214 274.955 335.913 275.27 C 334.846 275.501 334.096 276.016 333.236 276.667 C 330.877 278.362 328.631 278.986 325.723 278.734 C 323.327 278.277 321.223 277.095 319.712 275.165 C 318.124 272.621 317.598 269.938 318.144 266.99 C 318.749 265.011 319.884 263.453 321.365 262.038 C 323.047 260.422 324.545 258.651 324.666 256.241 C 324.631 254.668 324.019 253.006 322.905 251.874 C 320.808 250.119 318.593 249.794 315.956 249.995 C 314.635 250.162 313.751 250.917 312.739 251.728 C 310.48 253.53 308.077 254.008 305.249 253.752 C 302.795 253.308 300.559 251.979 299.116 249.93 C 297.669 247.641 297.157 245.058 297.676 242.384 C 298.473 239.599 300.216 237.699 302.255 235.732 C 304.956 233.13 304.956 233.13 305.871 229.58 C 305.849 227.889 305.074 226.422 303.934 225.201 C 302.403 223.8 301.005 223.395 298.938 223.445 C 297.541 223.588 296.569 224.245 295.486 225.093 C 292.896 227.113 290.452 227.705 287.217 227.455 C 284.809 226.993 282.678 225.613 281.259 223.62 C 279.834 221.362 279.355 218.895 279.826 216.253 C 280.567 213.377 282.275 211.636 284.371 209.649 C 284.701 209.312 285.003 208.97 285.307 208.611 C 286.297 207.472 287.38 206.422 288.45 205.359 C 288.85 204.961 289.25 204.563 289.649 204.164 C 290.641 203.175 291.633 202.187 292.626 201.199 C 293.467 200.362 294.307 199.524 295.147 198.687 C 295.539 198.296 295.931 197.906 296.323 197.517 C 297.332 196.512 298.328 195.512 299.251 194.426 C 300.107 193.472 301.035 192.584 301.945 191.682 C 302.338 191.292 302.73 190.902 303.122 190.512 C 304.235 189.403 305.349 188.296 306.464 187.189 C 307.148 186.51 307.832 185.829 308.515 185.149 C 308.775 184.89 309.035 184.631 309.296 184.373 C 309.659 184.013 310.021 183.653 310.382 183.292 C 310.491 183.186 310.599 183.079 310.711 182.969 C 311.269 182.482 311.269 182.482 311.448 181.812 C 311.572 181.812 311.696 181.812 311.823 181.812 C 312.068 181.571 312.068 181.571 312.33 181.236 C 313.331 180.06 314.438 178.988 315.533 177.9 C 315.939 177.496 316.345 177.091 316.751 176.687 C 317.758 175.682 318.767 174.678 319.775 173.674 C 320.629 172.824 321.482 171.974 322.335 171.123 C 322.733 170.726 323.131 170.33 323.53 169.934 C 324.578 168.89 325.619 167.852 326.577 166.723 C 327.059 166.17 327.593 165.67 328.124 165.164 C 328.362 164.932 328.6 164.701 328.838 164.47 C 329.204 164.113 329.572 163.758 329.943 163.405 C 332.187 161.269 333.895 159.068 334.046 155.844 C 333.97 153.268 332.974 151.01 331.22 149.142 C 329.284 147.373 327.032 146.616 324.442 146.647 C 319.552 146.971 316.198 151.679 313.001 154.908 Z" style="fill-rule: nonzero; fill: rgb(255, 255, 255);"/>
</svg>