<?xml version="1.0" encoding="utf-8"?>
<svg viewBox="0 0 500 500" xmlns="http://www.w3.org/2000/svg">
  <path d="M 458.009 250 C 458.009 307.44 434.726 359.441 397.084 397.084 C 359.441 434.728 307.44 458.009 250 458.009 C 192.56 458.009 140.56 434.727 102.917 397.085 C 65.273 359.442 41.991 307.44 41.991 250 C 41.991 192.56 65.298 140.582 102.916 102.915 C 140.583 65.295 192.56 41.991 250 41.991 C 307.44 41.991 359.44 65.273 397.083 102.915 C 434.727 140.558 458.009 192.56 458.009 250 Z" style="fill: rgb(138, 15, 0); stroke-width: 12px; stroke-linecap: round;"/>
  <path d="M 198.897 126.01 C 199.561 125.989 199.561 125.989 200.238 125.968 C 202.593 126.349 204.11 127.581 205.528 129.463 C 205.822 129.966 206.116 130.469 206.419 130.987 C 206.582 131.262 206.744 131.537 206.912 131.82 C 208.65 134.794 210.265 137.837 211.867 140.885 C 212.499 142.078 213.133 143.27 213.768 144.462 C 213.925 144.758 214.084 145.054 214.246 145.359 C 216.01 148.657 217.861 151.905 219.718 155.152 C 221.632 158.512 223.453 161.914 225.203 165.363 C 225.382 165.712 225.561 166.061 225.746 166.421 C 225.899 166.723 226.052 167.024 226.208 167.335 C 227.728 169.873 229.261 171.157 231.891 172.51 C 232.357 172.752 232.357 172.752 232.833 173.001 C 233.498 173.347 234.164 173.691 234.832 174.033 C 236.6 174.938 238.359 175.861 240.119 176.782 C 240.47 176.965 240.822 177.149 241.183 177.337 C 244.136 178.88 247.042 180.497 249.932 182.154 C 252.83 183.817 255.74 185.448 258.69 187.016 C 258.976 187.168 259.261 187.321 259.556 187.478 C 260.945 188.216 262.336 188.951 263.73 189.68 C 270.835 193.444 270.835 193.444 271.76 196.334 C 272.08 198.794 272.058 200.97 271.065 203.258 C 267.802 206.679 263.311 208.672 259.164 210.834 C 257.434 211.737 255.708 212.648 253.983 213.56 C 253.639 213.741 253.296 213.923 252.942 214.11 C 249.525 215.922 246.153 217.811 242.803 219.742 C 240.534 221.046 238.254 222.298 235.92 223.48 C 235.194 223.855 235.194 223.855 234.453 224.237 C 233.539 224.705 232.62 225.163 231.695 225.609 C 228.372 227.328 226.977 229.313 225.321 232.615 C 224.843 233.489 224.364 234.363 223.883 235.236 C 223.384 236.165 222.886 237.096 222.389 238.027 C 220.042 242.389 217.639 246.713 215.178 251.012 C 213.682 253.642 212.237 256.293 210.837 258.975 C 210.676 259.282 210.515 259.589 210.349 259.906 C 209.559 261.411 208.776 262.919 208.003 264.433 C 206.289 267.71 204.971 270.096 201.608 271.813 C 199.32 272.411 197.653 272.186 195.414 271.466 C 192.078 269.453 190.534 265.472 188.798 262.154 C 188.194 261.012 187.588 259.871 186.98 258.731 C 186.828 258.444 186.676 258.157 186.518 257.862 C 185.09 255.182 183.596 252.543 182.086 249.909 C 180.285 246.764 178.537 243.597 176.852 240.388 C 176.679 240.06 176.506 239.732 176.328 239.393 C 175.475 237.771 174.627 236.147 173.786 234.519 C 173.474 233.923 173.162 233.328 172.85 232.732 C 172.442 231.945 172.442 231.945 172.027 231.143 C 170.607 228.849 168.909 227.263 166.563 225.954 C 166.144 225.718 165.724 225.482 165.292 225.239 C 164.838 224.989 164.384 224.739 163.916 224.482 C 163.434 224.213 162.951 223.944 162.454 223.666 C 158.136 221.271 153.776 218.956 149.413 216.643 C 145.199 214.409 141.009 212.136 136.856 209.788 C 136.193 209.413 136.193 209.413 135.517 209.031 C 127.372 204.395 127.372 204.395 126.154 201.655 C 125.795 199.152 125.686 197.156 126.958 194.917 C 128.177 193.314 129.219 192.544 130.949 191.532 C 131.225 191.37 131.5 191.208 131.783 191.04 C 134.756 189.301 137.799 187.687 140.847 186.085 C 142.043 185.452 143.236 184.816 144.43 184.18 C 144.726 184.022 145.022 183.864 145.328 183.701 C 148.589 181.958 151.808 180.14 155.014 178.296 C 157.317 176.975 159.632 175.705 162.002 174.505 C 162.485 174.256 162.968 174.007 163.465 173.75 C 164.378 173.283 165.295 172.825 166.218 172.381 C 169.542 170.661 170.937 168.676 172.593 165.374 C 173.071 164.5 173.55 163.626 174.031 162.753 C 174.53 161.824 175.028 160.893 175.526 159.963 C 177.884 155.577 180.3 151.232 182.769 146.908 C 184.21 144.372 185.617 141.822 186.986 139.246 C 187.138 138.961 187.29 138.677 187.446 138.383 C 188.183 136.999 188.915 135.612 189.642 134.222 C 193.957 126.079 193.957 126.079 198.897 126.01 Z" style="fill: rgb(255, 255, 255);"/>
  <path d="M 325.849 218.102 C 328.964 220.95 330.844 224.688 332.771 228.386 C 333.555 229.887 334.354 231.381 335.15 232.875 C 335.473 233.484 335.797 234.093 336.12 234.702 C 336.278 234.999 336.436 235.296 336.598 235.602 C 337.05 236.455 337.501 237.308 337.952 238.162 C 338.765 239.695 339.592 241.22 340.422 242.743 C 340.662 243.2 340.901 243.658 341.147 244.129 C 342.76 247.056 344.257 248.54 347.225 250.029 C 348.067 250.492 348.909 250.956 349.751 251.42 C 350.693 251.925 351.634 252.429 352.576 252.932 C 356.702 255.155 360.819 257.392 364.912 259.674 C 365.368 259.925 365.825 260.176 366.296 260.435 C 372.889 264.134 372.889 264.134 373.831 266.961 C 373.963 268.147 373.963 268.147 374.012 269.5 C 374.036 269.942 374.06 270.383 374.084 270.838 C 373.725 272.886 372.871 274.238 371.412 275.668 C 369.736 276.813 367.962 277.718 366.152 278.631 C 365.107 279.176 364.063 279.722 363.02 280.269 C 362.488 280.546 361.955 280.823 361.406 281.109 C 358.856 282.457 356.351 283.883 353.846 285.313 C 352.971 285.811 352.096 286.309 351.221 286.807 C 350.804 287.05 350.387 287.292 349.957 287.542 C 348.676 288.245 348.676 288.245 347.297 288.853 C 343.179 290.748 341.693 293.426 339.787 297.406 C 339.483 298.011 339.177 298.614 338.87 299.217 C 338.245 300.443 337.626 301.672 337.01 302.902 C 335.653 305.592 334.172 308.212 332.682 310.83 C 332.435 311.271 332.187 311.712 331.932 312.167 C 327.106 320.693 327.106 320.693 324.005 321.624 C 321.395 321.985 319.465 321.661 317.233 320.172 C 314.786 317.616 313.3 314.614 311.67 311.495 C 311.073 310.369 310.476 309.244 309.878 308.118 C 309.727 307.834 309.576 307.55 309.42 307.256 C 307.6 303.841 305.673 300.486 303.73 297.14 C 301.824 293.819 301.824 293.819 301.277 291.866 C 301.115 291.469 300.953 291.073 300.786 290.664 C 299.517 290.118 299.517 290.118 297.883 289.697 C 296.214 288.845 294.605 287.887 292.985 286.945 C 289.726 285.067 286.454 283.231 283.115 281.498 C 282.812 281.339 282.508 281.18 282.194 281.017 C 280.394 280.076 280.394 280.076 278.585 279.15 C 271.187 275.399 271.187 275.399 269.826 271.314 C 269.542 268.421 270.019 266.353 271.761 264.058 C 272.707 263.368 272.707 263.368 273.839 262.72 C 274.487 262.347 274.487 262.347 275.149 261.966 C 275.627 261.699 276.105 261.431 276.598 261.156 C 277.111 260.868 277.623 260.58 278.152 260.284 C 279.567 259.495 280.985 258.714 282.406 257.935 C 283.333 257.424 284.256 256.909 285.179 256.392 C 287.907 254.87 290.613 253.385 293.472 252.119 C 300.105 249.107 302.675 245.123 305.773 238.647 C 307.165 235.788 308.682 232.996 310.186 230.195 C 310.691 229.249 311.189 228.3 311.686 227.35 C 318 215.312 318 215.312 325.849 218.102 Z" style="fill: rgb(255, 255, 255);"/>
  <path d="M 238.957 301.367 C 242.545 303.759 244.178 307.687 246.123 311.405 C 246.986 313.046 247.854 314.686 248.739 316.316 C 249.191 317.16 249.627 318.013 250.025 318.883 C 251.765 322.342 255.262 323.671 258.579 325.312 C 270.872 331.536 270.872 331.536 272.245 335.652 C 272.536 338.523 272.18 340.059 270.602 342.457 C 269.288 344.04 267.685 344.846 265.865 345.75 C 265.092 346.156 264.319 346.561 263.547 346.967 C 262.951 347.275 262.951 347.275 262.342 347.588 C 259.912 348.862 257.536 350.238 255.151 351.593 C 252.518 353.067 252.518 353.067 251.444 353.067 C 251.317 353.403 251.19 353.738 251.06 354.084 C 250.027 356.564 248.704 358.903 247.436 361.269 C 246.942 362.19 246.453 363.113 245.964 364.036 C 241.299 372.79 241.299 372.79 238.383 373.868 C 236.066 374.117 233.91 374.17 231.701 373.384 C 227.958 369.963 225.887 365.201 223.607 360.759 C 223.144 359.859 222.675 358.962 222.205 358.065 C 221.932 357.535 221.66 357.005 221.379 356.459 C 219.69 353.71 217.633 352.192 214.79 350.773 C 214.155 350.444 213.519 350.114 212.883 349.785 C 211.893 349.279 210.903 348.776 209.912 348.273 C 200.631 343.544 200.631 343.544 199.189 340.37 C 198.471 338.08 198.644 336.01 199.572 333.807 C 201.579 330.238 206.474 328.428 209.982 326.582 C 210.905 326.096 211.824 325.605 212.743 325.114 C 217.366 322.656 217.366 322.656 218.922 322.19 C 220.138 321.699 220.138 321.699 220.551 320.278 C 220.688 319.764 220.826 319.25 220.968 318.721 C 221.896 316.79 222.936 314.919 223.961 313.037 C 224.228 312.537 224.495 312.037 224.771 311.522 C 229.231 303.295 229.231 303.295 232.063 301.246 C 234.556 300.534 236.502 300.5 238.957 301.367 Z" style="fill: rgb(255, 255, 255);"/>
</svg>