<?xml version="1.0" encoding="utf-8"?>
<svg viewBox="0 0 500 500" xmlns="http://www.w3.org/2000/svg">
  <path d="M -294.073 -20.701 C -288.452 -15.984 -283.183 -10.965 -278.011 -5.763 C -277.342 -5.099 -276.674 -4.434 -275.985 -3.75 C -272.824 -0.582 -269.762 2.616 -266.858 6.022 C -261.762 11.927 -256.119 17.321 -250.573 22.799 C -238.322 34.9 -238.322 34.9 -232.974 41.176 C -228.414 46.27 -223.436 50.996 -218.573 55.799 C -206.322 67.9 -206.322 67.9 -200.974 74.176 C -196.414 79.27 -191.436 83.996 -186.573 88.799 C -174.322 100.9 -174.322 100.9 -168.974 107.176 C -164.414 112.27 -159.436 116.996 -154.573 121.799 C -142.322 133.9 -142.322 133.9 -136.974 140.176 C -132.414 145.27 -127.436 149.996 -122.573 154.799 C -110.163 167.058 -110.163 167.058 -104.781 173.377 C -100.537 178.153 -95.815 182.509 -91.218 186.94 C -90.44 187.703 -89.663 188.466 -88.862 189.252 C -88.158 189.935 -87.454 190.617 -86.728 191.32 C -84.984 193.406 -84.592 194.683 -84.073 197.299 C -82.297 199.471 -82.297 199.471 -80.073 201.674 C -61.115 222.2 -52.207 249.909 -53.194 277.6 C -54.617 301.333 -63.125 324.468 -79.073 342.299 C -79.736 343.049 -80.398 343.798 -81.081 344.57 C -86.504 350.659 -92.13 356.494 -97.907 362.247 C -98.855 363.194 -99.802 364.141 -100.749 365.089 C -103.287 367.628 -105.829 370.163 -108.371 372.698 C -111.039 375.36 -113.705 378.025 -116.371 380.69 C -121.404 385.721 -126.441 390.749 -131.478 395.776 C -137.219 401.506 -142.957 407.238 -148.695 412.971 C -160.484 424.75 -172.278 436.526 -184.073 448.299 C -182.631 452.722 -180.975 456.888 -179.018 461.112 C -178.572 462.075 -178.572 462.075 -178.117 463.058 C -177.149 465.14 -176.175 467.22 -175.198 469.299 C -174.696 470.37 -174.696 470.37 -174.184 471.463 C -168.701 483.13 -162.887 494.547 -156.516 505.758 C -155.048 508.343 -153.601 510.939 -152.155 513.537 C -137.689 539.382 -121.104 563.82 -103.073 587.299 C -102.613 587.899 -102.154 588.499 -101.68 589.118 C -92.037 601.665 -81.729 613.602 -71.073 625.299 C -70.304 626.162 -69.534 627.024 -68.741 627.912 C -62.809 634.501 -56.644 640.833 -50.386 647.112 C -49.59 647.912 -48.794 648.713 -47.974 649.537 C -43.728 653.772 -39.404 657.848 -34.858 661.76 C -32.442 663.844 -30.104 666.009 -27.761 668.174 C -23.296 672.247 -18.707 676.105 -14.003 679.897 C -11.335 682.085 -8.729 684.324 -6.13 686.593 C 1.283 693.049 8.997 698.984 16.912 704.808 C 18.884 706.267 20.841 707.744 22.794 709.229 C 38.684 721.299 55.048 732.657 71.927 743.299 C 72.705 743.792 73.484 744.285 74.286 744.793 C 93.853 757.151 113.807 768.794 134.364 779.424 C 134.967 779.736 135.569 780.048 136.19 780.37 C 141.954 783.347 147.736 786.228 153.645 788.906 C 154.635 789.355 155.624 789.803 156.644 790.265 C 157.774 790.777 157.774 790.777 158.927 791.299 C 159.465 790.756 160.004 790.213 160.559 789.653 C 173.709 776.392 186.874 763.144 200.055 749.912 C 206.428 743.513 212.797 737.109 219.155 730.693 C 224.702 725.097 230.257 719.51 235.823 713.933 C 238.765 710.984 241.703 708.031 244.631 705.067 C 247.396 702.267 250.172 699.481 252.958 696.702 C 253.97 695.69 254.977 694.673 255.979 693.651 C 276.181 673.077 303.738 661.311 332.566 660.919 C 360.9 660.964 388.581 667.559 409.927 687.299 C 412.328 689.774 414.665 692.308 417.007 694.84 C 426.367 704.863 436.057 714.541 445.776 724.214 C 447.715 726.148 449.653 728.082 451.592 730.016 C 455.73 734.145 459.871 738.272 464.012 742.399 C 470.569 748.931 477.12 755.47 483.67 762.008 C 485.921 764.256 488.173 766.504 490.425 768.751 C 491.268 769.593 491.268 769.593 492.129 770.452 C 498.496 776.808 504.865 783.163 511.234 789.517 C 511.815 790.097 512.396 790.676 512.994 791.273 C 522.425 800.682 531.86 810.087 541.296 819.491 C 551.024 829.186 560.745 838.887 570.462 848.593 C 576.436 854.559 582.414 860.521 588.398 866.476 C 592.497 870.556 596.59 874.641 600.679 878.731 C 603.032 881.083 605.388 883.433 607.749 885.777 C 633.632 911.486 650.308 938.551 651.114 975.987 C 650.854 996.234 645.859 1014.719 635.927 1032.299 C 635.371 1033.296 634.816 1034.292 634.243 1035.319 C 626.119 1048.938 613.451 1059.932 602.32 1071.083 C 600.776 1072.633 599.233 1074.183 597.689 1075.734 C 592.662 1080.781 587.631 1085.824 582.599 1090.866 C 580.856 1092.612 579.113 1094.359 577.37 1096.106 C 569.184 1104.312 560.995 1112.515 552.803 1120.715 C 543.387 1130.141 533.98 1139.575 524.579 1149.016 C 517.282 1156.343 509.977 1163.662 502.667 1170.976 C 498.314 1175.331 493.964 1179.69 489.623 1184.057 C 485.537 1188.166 481.442 1192.265 477.34 1196.357 C 475.846 1197.85 474.356 1199.346 472.87 1200.847 C 461.011 1212.81 448.607 1223.131 433.864 1231.424 C 432.989 1231.919 432.113 1232.413 431.211 1232.922 C 406.574 1246.488 379.039 1254.144 350.927 1255.299 C 349.467 1255.361 349.467 1255.361 347.978 1255.424 C 334.332 1255.704 320.531 1254.261 307.177 1251.487 C 306.154 1251.275 306.154 1251.275 305.11 1251.06 C 288.972 1247.474 273.939 1241.697 258.739 1235.299 C 256.687 1234.442 254.635 1233.586 252.582 1232.73 C 246.69 1230.268 240.807 1227.787 234.927 1225.299 C 234.155 1224.973 233.383 1224.647 232.587 1224.31 C 200.271 1210.642 168.48 1195.843 137.013 1180.328 C 134.954 1179.312 132.893 1178.299 130.833 1177.286 C 116.533 1170.245 102.348 1163.045 88.403 1155.319 C 83.419 1152.557 78.396 1149.873 73.367 1147.193 C 60.831 1140.504 48.5 1133.526 36.278 1126.282 C 33.238 1124.483 30.193 1122.695 27.146 1120.91 C 12.212 1112.156 -2.521 1103.213 -16.956 1093.651 C -21.674 1090.534 -26.476 1087.583 -31.323 1084.674 C -40.06 1079.413 -48.445 1073.688 -56.815 1067.866 C -58.948 1066.386 -61.087 1064.916 -63.229 1063.452 C -72.913 1056.831 -82.518 1050.103 -92.073 1043.299 C -92.787 1042.792 -93.501 1042.284 -94.236 1041.761 C -106.718 1032.87 -118.921 1023.634 -131.073 1014.299 C -132.315 1013.348 -133.557 1012.398 -134.8 1011.448 C -146.376 1002.583 -157.819 993.57 -169.073 984.299 C -170.865 982.841 -172.656 981.382 -174.448 979.924 C -180.156 975.254 -185.783 970.491 -191.403 965.715 C -193.077 964.296 -194.756 962.883 -196.436 961.471 C -202.322 956.523 -208.127 951.51 -213.819 946.338 C -215.842 944.508 -217.887 942.71 -219.948 940.924 C -223.862 937.515 -227.684 934.009 -231.501 930.494 C -234.75 927.504 -238.026 924.548 -241.323 921.612 C -244.981 918.334 -248.484 914.952 -251.893 911.416 C -253.734 909.628 -255.611 907.973 -257.561 906.307 C -262.748 901.779 -267.59 896.926 -272.452 892.053 C -273.433 891.073 -274.413 890.093 -275.394 889.114 C -277.437 887.072 -279.478 885.029 -281.518 882.985 C -284.112 880.385 -286.711 877.789 -289.311 875.195 C -291.333 873.177 -293.353 871.156 -295.372 869.134 C -296.788 867.717 -298.206 866.302 -299.624 864.887 C -304.135 860.36 -308.518 855.787 -312.667 850.925 C -314.53 848.771 -316.53 846.782 -318.573 844.799 C -321.901 841.511 -325.027 838.135 -328.069 834.584 C -330.13 832.235 -332.248 829.949 -334.381 827.665 C -339.408 822.282 -344.183 816.792 -348.796 811.045 C -351.291 808.036 -353.911 805.16 -356.573 802.299 C -360.807 797.743 -364.803 793.046 -368.702 788.202 C -371.391 784.91 -374.165 781.699 -376.948 778.487 C -381.402 773.33 -385.682 768.068 -389.86 762.686 C -393.341 758.207 -396.913 753.81 -400.511 749.424 C -405.798 742.956 -410.856 736.347 -415.835 729.639 C -418.886 725.533 -421.993 721.47 -425.104 717.408 C -431.5 709.057 -437.803 700.665 -443.843 692.052 C -445.175 690.154 -446.514 688.262 -447.854 686.37 C -450.399 682.776 -452.934 679.176 -455.468 675.575 C -457.09 673.275 -458.72 670.98 -460.351 668.686 C -469.956 655.125 -479.056 641.256 -488.073 627.299 C -488.746 626.261 -489.42 625.223 -490.113 624.153 C -539.631 547.747 -582.834 466.999 -649.808 228.851 C -646.274 213.426 -640.579 199.2 -633.073 185.299 C -632.507 184.24 -631.941 183.18 -631.358 182.088 C -625.042 170.764 -617.049 160.938 -608.008 151.7 C -605.927 149.534 -604.244 147.767 -603.203 144.92 C -601.818 141.707 -600.034 139.935 -597.53 137.498 C -596.621 136.603 -595.711 135.708 -594.774 134.786 C -593.812 133.852 -592.849 132.919 -591.886 131.987 C -584.585 124.948 -584.585 124.948 -577.741 117.475 C -571.853 110.583 -565.193 104.367 -558.752 97.999 C -550.106 89.448 -550.106 89.448 -541.97 80.418 C -536.71 74.541 -530.933 69.114 -525.325 63.572 C -517.729 56.144 -517.729 56.144 -510.573 48.299 C -504.925 41.663 -498.518 35.692 -492.325 29.572 C -486.727 24.033 -481.178 18.537 -476.064 12.543 C -461.546 -3.823 -445.621 -21.472 -426.073 -31.701 C -425.321 -32.11 -424.569 -32.519 -423.794 -32.94 C -381.666 -55.572 -331.456 -50.194 -294.073 -20.701 Z M -382.073 60.299 C -383.102 61.47 -384.119 62.651 -385.128 63.838 C -389.428 68.783 -394.044 73.377 -398.698 77.987 C -399.604 78.889 -400.51 79.791 -401.443 80.72 C -404.802 84.065 -408.166 87.406 -411.531 90.747 C -414.84 94.032 -418.144 97.322 -421.448 100.612 C -422.309 101.464 -423.169 102.316 -424.056 103.194 C -428.304 107.425 -432.364 111.728 -436.272 116.273 C -439.83 120.276 -443.675 124.001 -447.479 127.768 C -448.805 129.088 -448.805 129.088 -450.157 130.434 C -453.433 133.696 -456.714 136.953 -459.995 140.21 C -463.221 143.414 -466.445 146.622 -469.667 149.83 C -470.506 150.661 -471.344 151.491 -472.209 152.347 C -475.777 155.901 -479.274 159.463 -482.557 163.283 C -486.706 168.107 -491.215 172.547 -495.733 177.022 C -497.121 178.404 -498.509 179.786 -499.896 181.168 C -502.307 183.568 -504.722 185.965 -507.136 188.362 C -510.024 191.23 -512.913 194.099 -515.797 196.972 C -517.585 198.753 -519.376 200.532 -521.169 202.308 C -525.696 206.816 -529.966 211.408 -534.073 216.299 C -534.878 217.062 -535.682 217.825 -536.511 218.612 C -547.729 230.377 -552.205 244.574 -552.448 260.549 C -552.486 261.434 -552.523 262.318 -552.561 263.229 C -552.758 278.748 -545.505 294.013 -539.948 308.237 C -539.279 309.962 -538.61 311.687 -537.941 313.412 C -532.591 327.16 -526.988 340.783 -521.073 354.299 C -520.619 355.343 -520.166 356.386 -519.698 357.461 C -503.544 394.548 -486.199 431.255 -466.547 466.624 C -464.99 469.451 -463.46 472.29 -461.936 475.135 C -454.303 489.385 -446.326 503.399 -438.073 517.299 C -437.451 518.348 -436.829 519.397 -436.188 520.478 C -428.542 533.353 -420.772 546.136 -412.701 558.75 C -410.893 561.581 -409.096 564.418 -407.3 567.256 C -398.496 581.13 -389.437 594.798 -380.073 608.299 C -379.18 609.589 -379.18 609.589 -378.268 610.904 C -366.191 628.311 -353.811 645.446 -340.921 662.26 C -338.045 666.015 -335.209 669.796 -332.395 673.597 C -326.075 682.125 -319.383 690.307 -312.593 698.463 C -310.621 700.845 -308.686 703.255 -306.761 705.674 C -299.24 715.118 -291.502 724.353 -283.622 733.496 C -282.095 735.274 -280.577 737.059 -279.061 738.846 C -273.152 745.806 -267.101 752.599 -260.878 759.28 C -258.393 761.948 -255.944 764.647 -253.511 767.362 C -243.009 779.064 -243.009 779.064 -232.027 790.313 C -230.195 792.176 -228.486 794.091 -226.788 796.076 C -223.305 800.083 -219.649 803.869 -215.89 807.616 C -215.23 808.276 -214.571 808.936 -213.892 809.616 C -212.509 811 -211.125 812.382 -209.74 813.763 C -207.641 815.857 -205.547 817.956 -203.454 820.055 C -202.1 821.409 -200.745 822.762 -199.39 824.116 C -198.775 824.732 -198.16 825.349 -197.526 825.985 C -193.755 829.737 -189.864 833.297 -185.828 836.764 C -183.462 838.834 -181.266 841.047 -179.073 843.299 C -175.604 846.805 -172.07 850.127 -168.323 853.33 C -165.984 855.377 -163.712 857.484 -161.441 859.605 C -156.036 864.653 -150.523 869.455 -144.753 874.088 C -141.941 876.409 -139.255 878.83 -136.573 881.299 C -132.157 885.359 -127.612 889.192 -122.944 892.959 C -119.843 895.487 -116.802 898.076 -113.761 900.674 C -107.576 905.939 -101.221 910.963 -94.809 915.946 C -93.138 917.248 -91.476 918.559 -89.815 919.873 C -74.255 932.189 -58.445 944.16 -42.301 955.701 C -39.985 957.362 -37.679 959.036 -35.374 960.713 C -34.2 961.567 -34.2 961.567 -33.002 962.437 C -31.537 963.502 -30.074 964.568 -28.612 965.636 C -23.604 969.268 -18.491 972.72 -13.335 976.137 C -9.92 978.401 -6.515 980.681 -3.112 982.963 C 45.981 1015.851 96.724 1045.619 148.927 1073.299 C 150.458 1074.113 150.458 1074.113 152.021 1074.944 C 165.035 1081.852 178.176 1088.409 191.506 1094.683 C 194.637 1096.162 197.762 1097.655 200.884 1099.152 C 231.312 1113.737 262.169 1127.192 293.364 1140.049 C 294.283 1140.43 295.201 1140.81 296.147 1141.202 C 321.413 1151.656 346.998 1160.894 373.927 1150.299 C 389.657 1142.97 401.386 1131.143 413.49 1119.042 C 415.04 1117.501 416.589 1115.959 418.14 1114.418 C 422.324 1110.256 426.501 1106.087 430.677 1101.917 C 433.286 1099.311 435.896 1096.707 438.507 1094.103 C 447.615 1085.02 456.717 1075.931 465.814 1066.838 C 474.299 1058.356 482.797 1049.888 491.301 1041.426 C 498.606 1034.155 505.901 1026.876 513.189 1019.588 C 517.541 1015.237 521.897 1010.891 526.262 1006.553 C 530.359 1002.483 534.443 998.402 538.518 994.31 C 540.018 992.808 541.523 991.31 543.033 989.816 C 545.085 987.784 547.121 985.738 549.154 983.687 C 549.761 983.093 550.368 982.499 550.993 981.887 C 552.819 980.084 552.819 980.084 554.927 977.299 C 554.663 973.741 553 971.998 550.541 969.541 C 549.811 968.805 549.081 968.069 548.329 967.31 C 547.519 966.508 546.709 965.706 545.875 964.879 C 545.02 964.022 544.166 963.165 543.286 962.281 C 540.911 959.9 538.529 957.526 536.145 955.154 C 533.575 952.596 531.015 950.029 528.453 947.463 C 523.431 942.436 518.402 937.416 513.37 932.4 C 507.51 926.557 501.658 920.707 495.806 914.856 C 485.363 904.415 474.913 893.981 464.459 883.55 C 454.317 873.431 444.179 863.307 434.046 853.178 C 433.423 852.555 432.799 851.932 432.156 851.289 C 430.9 850.033 429.644 848.778 428.388 847.522 C 427.768 846.902 427.148 846.283 426.51 845.644 C 425.891 845.026 425.273 844.408 424.636 843.772 C 414.98 834.119 405.32 824.471 395.66 814.823 C 392.16 811.327 388.66 807.831 385.16 804.334 C 379.607 798.785 374.051 793.237 368.493 787.693 C 365.953 785.16 363.414 782.626 360.877 780.09 C 358.126 777.339 355.37 774.593 352.614 771.846 C 351.815 771.046 351.016 770.246 350.193 769.422 C 348.122 767.362 346.035 765.322 343.927 763.299 C 343.357 762.747 342.786 762.196 342.199 761.627 C 339.44 759.053 339.44 759.053 335.887 758.195 C 333.069 759.783 330.925 761.759 328.565 763.974 C 328.043 764.462 327.522 764.951 326.984 765.454 C 320.412 771.653 314.067 778.083 307.716 784.507 C 306.335 785.9 304.954 787.292 303.573 788.684 C 300.624 791.657 297.676 794.631 294.729 797.605 C 290.069 802.308 285.402 807.003 280.733 811.696 C 279.942 812.491 279.152 813.286 278.337 814.105 C 276.722 815.728 275.107 817.352 273.492 818.975 C 262.638 829.886 251.789 840.8 240.962 851.737 C 233.633 859.14 226.292 866.531 218.937 873.907 C 215.051 877.805 211.172 881.709 207.307 885.629 C 203.682 889.304 200.042 892.964 196.389 896.611 C 195.05 897.953 193.717 899.302 192.39 900.657 C 190.583 902.501 188.755 904.323 186.921 906.141 C 186.136 906.957 186.136 906.957 185.336 907.789 C 183.834 909.251 183.834 909.251 180.927 911.299 C 176.648 911.149 173.341 909.779 169.497 907.963 C 168.467 907.482 167.438 907.001 166.377 906.505 C 165.28 905.983 164.182 905.462 163.052 904.924 C 160.695 903.818 158.339 902.713 155.982 901.608 C 154.795 901.049 153.609 900.491 152.387 899.916 C 149.246 898.448 146.095 897.008 142.935 895.584 C 119.514 885.035 96.668 873.591 74.43 860.732 C 71.429 859.014 68.397 857.357 65.359 855.705 C 46.035 845.17 27.274 833.443 8.927 821.299 C 7.708 820.5 6.489 819.7 5.271 818.901 C -26.343 798.083 -56.547 775.295 -85.36 750.758 C -86.518 749.772 -87.677 748.786 -88.837 747.801 C -95.791 741.895 -102.667 735.931 -109.378 729.748 C -111.492 727.827 -113.631 725.958 -115.796 724.096 C -120.616 719.89 -125.125 715.394 -129.636 710.862 C -130.447 710.054 -131.259 709.247 -132.095 708.414 C -136.397 704.106 -140.542 699.723 -144.511 695.106 C -146.76 692.505 -149.105 690.003 -151.448 687.487 C -156.564 681.943 -161.346 676.178 -166.073 670.299 C -167.046 669.117 -168.02 667.936 -168.995 666.756 C -195.139 635.039 -218.316 600.76 -239.073 565.299 C -239.521 564.534 -239.969 563.77 -240.431 562.982 C -247.394 551.054 -253.962 538.96 -260.284 526.682 C -261.919 523.509 -263.574 520.354 -265.3 517.229 C -277.443 495.175 -287.407 471.725 -296.045 448.102 C -297.027 445.425 -298.035 442.758 -299.05 440.092 C -299.621 438.558 -300.192 437.022 -300.761 435.487 C -301.017 434.817 -301.274 434.147 -301.538 433.457 C -302.933 429.585 -303.472 427.186 -302.073 423.299 C -300.073 420.92 -297.743 418.928 -295.417 416.874 C -287.091 409.269 -279.041 401.423 -271.042 393.477 C -270.078 392.52 -270.078 392.52 -269.094 391.544 C -264.249 386.737 -259.41 381.923 -254.573 377.108 C -253.857 376.394 -253.14 375.681 -252.401 374.946 C -245.63 368.206 -238.861 361.463 -232.097 354.716 C -223.494 346.135 -214.881 337.564 -206.254 329.007 C -200.155 322.955 -194.067 316.891 -187.988 310.819 C -184.368 307.204 -180.743 303.594 -177.105 299.996 C -173.697 296.625 -170.303 293.24 -166.92 289.843 C -165.678 288.601 -164.43 287.364 -163.177 286.132 C -161.467 284.45 -159.777 282.75 -158.09 281.045 C -157.591 280.562 -157.092 280.08 -156.578 279.583 C -153.126 276.035 -152.249 273.206 -152.073 268.299 C -153.095 266.106 -153.095 266.106 -154.936 264.44 C -155.914 263.433 -155.914 263.433 -156.912 262.407 C -157.625 261.711 -158.338 261.016 -159.073 260.299 C -159.777 259.578 -160.482 258.857 -161.207 258.114 C -163.537 255.736 -165.895 253.391 -168.261 251.049 C -169.122 250.192 -169.983 249.334 -170.871 248.451 C -173.602 245.731 -176.337 243.015 -179.073 240.299 C -182.68 236.719 -186.284 233.135 -189.886 229.549 C -190.703 228.741 -191.519 227.932 -192.361 227.099 C -196.524 222.954 -200.493 218.726 -204.323 214.274 C -207.519 210.668 -210.961 207.31 -214.386 203.924 C -215.158 203.155 -215.931 202.387 -216.727 201.595 C -219.173 199.16 -221.623 196.729 -224.073 194.299 C -227.305 191.094 -230.534 187.885 -233.761 184.674 C -234.855 183.593 -234.855 183.593 -235.971 182.489 C -239.925 178.554 -243.665 174.515 -247.306 170.291 C -250.441 166.758 -253.809 163.462 -257.167 160.143 C -257.917 159.396 -258.668 158.65 -259.441 157.881 C -261.816 155.518 -264.194 153.158 -266.573 150.799 C -269.712 147.688 -272.847 144.573 -275.979 141.455 C -276.687 140.756 -277.394 140.057 -278.123 139.337 C -281.389 136.087 -284.551 132.803 -287.56 129.313 C -291.301 124.975 -295.313 120.95 -299.386 116.924 C -300.158 116.155 -300.931 115.387 -301.727 114.595 C -304.173 112.16 -306.623 109.729 -309.073 107.299 C -312.305 104.094 -315.534 100.885 -318.761 97.674 C -319.855 96.593 -319.855 96.593 -320.971 95.489 C -324.966 91.513 -328.761 87.437 -332.44 83.168 C -334.858 80.401 -337.402 77.771 -339.979 75.155 C -340.508 74.618 -341.036 74.082 -341.581 73.529 C -342.685 72.411 -343.791 71.294 -344.898 70.179 C -346.019 69.046 -347.136 67.909 -348.248 66.767 C -349.878 65.095 -351.521 63.436 -353.167 61.78 C -353.656 61.273 -354.144 60.767 -354.648 60.246 C -363.459 51.489 -372.934 51.845 -382.073 60.299 Z" fill="#0062AF"/>
  <path d="M 80.488 119.175 C 81.088 119.175 81.687 119.174 82.287 119.173 C 83.938 119.171 85.59 119.171 87.241 119.171 C 89.036 119.171 90.831 119.17 92.627 119.167 C 96.189 119.164 99.753 119.163 103.315 119.163 C 107.581 119.163 111.848 119.16 116.114 119.158 C 126.426 119.151 136.738 119.148 147.05 119.146 C 151.928 119.145 156.806 119.144 161.683 119.142 C 178.378 119.137 195.073 119.133 211.768 119.131 C 212.816 119.131 213.864 119.131 214.912 119.131 C 215.963 119.131 217.014 119.131 218.065 119.131 C 220.172 119.13 222.28 119.13 224.388 119.13 C 224.91 119.13 225.433 119.13 225.971 119.13 C 242.919 119.128 259.867 119.121 276.813 119.112 C 294.73 119.102 312.645 119.097 330.562 119.096 C 332.527 119.096 334.495 119.096 336.46 119.096 C 336.945 119.096 337.429 119.096 337.928 119.096 C 345.722 119.095 353.516 119.09 361.31 119.084 C 369.143 119.078 376.976 119.076 384.81 119.08 C 389.464 119.081 394.118 119.08 398.771 119.074 C 401.882 119.07 404.991 119.07 408.1 119.075 C 409.871 119.076 411.643 119.076 413.414 119.072 C 415.028 119.067 416.642 119.068 418.255 119.074 C 419.104 119.075 419.952 119.07 420.801 119.066 C 430.599 119.121 438.852 122.698 445.737 129.642 C 447.854 131.872 449.431 134.291 450.839 137.007 C 450.971 137.257 451.103 137.506 451.24 137.763 C 454.037 143.442 454.309 149.072 454.278 155.267 C 454.28 156.121 454.283 156.974 454.286 157.826 C 454.293 160.155 454.29 162.485 454.284 164.814 C 454.28 167.331 454.287 169.848 454.292 172.366 C 454.298 177.008 454.297 181.65 454.293 186.292 C 454.288 190.581 454.287 194.869 454.29 199.158 C 454.29 199.585 454.29 199.585 454.291 200.022 C 454.291 201.179 454.292 202.336 454.292 203.493 C 454.296 214.337 454.292 225.182 454.283 236.026 C 454.274 245.652 454.275 255.275 454.284 264.9 C 454.293 275.724 454.296 286.55 454.292 297.375 C 454.291 298.53 454.291 299.685 454.29 300.84 C 454.29 301.125 454.29 301.409 454.29 301.702 C 454.287 305.987 454.29 310.273 454.294 314.558 C 454.298 319.432 454.297 324.307 454.288 329.181 C 454.284 331.667 454.282 334.153 454.287 336.638 C 454.293 338.916 454.29 341.194 454.281 343.472 C 454.279 344.294 454.28 345.116 454.284 345.937 C 454.312 351.99 453.743 357.507 450.865 362.965 C 450.723 363.241 450.581 363.516 450.434 363.8 C 445.856 372.353 438.211 377.35 429.18 380.128 C 425.975 380.896 422.789 380.828 419.512 380.823 C 418.913 380.824 418.313 380.825 417.713 380.826 C 416.062 380.829 414.41 380.828 412.759 380.827 C 410.963 380.827 409.168 380.829 407.372 380.831 C 403.81 380.833 400.248 380.834 396.686 380.834 C 392.419 380.835 388.152 380.838 383.886 380.841 C 373.573 380.848 363.263 380.85 352.951 380.852 C 348.073 380.853 343.195 380.854 338.317 380.856 C 321.622 380.862 304.927 380.866 288.231 380.867 C 287.183 380.867 286.135 380.868 285.087 380.868 C 284.037 380.868 282.986 380.868 281.936 380.868 C 279.828 380.868 277.72 380.868 275.613 380.869 C 275.09 380.869 274.566 380.869 274.029 380.869 C 257.081 380.871 240.134 380.876 223.186 380.887 C 205.271 380.897 187.355 380.902 169.44 380.902 C 167.472 380.903 165.507 380.903 163.539 380.903 C 163.055 380.903 162.571 380.903 162.072 380.903 C 154.278 380.904 146.484 380.908 138.689 380.914 C 130.857 380.92 123.023 380.922 115.19 380.918 C 110.537 380.916 105.882 380.918 101.228 380.925 C 98.119 380.929 95.009 380.928 91.9 380.924 C 90.129 380.922 88.358 380.921 86.586 380.927 C 84.972 380.932 83.359 380.931 81.744 380.925 C 80.896 380.923 80.047 380.928 79.199 380.933 C 69.402 380.877 61.148 377.301 54.263 370.357 C 52.147 368.128 50.569 365.708 49.16 362.991 C 49.029 362.742 48.897 362.492 48.761 362.235 C 45.963 356.557 45.692 350.926 45.722 344.731 C 45.72 343.878 45.717 343.024 45.714 342.171 C 45.707 339.842 45.71 337.513 45.715 335.184 C 45.719 332.667 45.714 330.15 45.71 327.632 C 45.702 322.99 45.702 318.349 45.707 313.707 C 45.712 309.419 45.713 305.129 45.71 300.84 C 45.71 300.556 45.71 300.27 45.71 299.977 C 45.71 298.819 45.71 297.662 45.709 296.504 C 45.703 285.66 45.708 274.816 45.717 263.972 C 45.725 254.348 45.724 244.724 45.716 235.098 C 45.707 224.273 45.704 213.448 45.709 202.623 C 45.71 201.468 45.71 200.313 45.71 199.158 C 45.71 198.874 45.711 198.589 45.711 198.296 C 45.714 194.011 45.71 189.726 45.706 185.441 C 45.701 180.566 45.703 175.692 45.712 170.817 C 45.716 168.332 45.718 165.846 45.713 163.36 C 45.708 161.082 45.71 158.804 45.719 156.526 C 45.721 155.704 45.72 154.883 45.715 154.062 C 45.689 148.009 46.258 142.491 49.135 137.034 C 49.278 136.758 49.42 136.482 49.567 136.198 C 54.145 127.645 61.789 122.648 70.822 119.87 C 74.024 119.102 77.211 119.171 80.488 119.175 Z M 87.579 135.889 C 91.068 139.377 94.665 142.679 98.513 145.768 C 99.767 146.808 100.965 147.899 102.155 149.007 C 103.711 150.454 105.289 151.839 106.945 153.172 C 108.827 154.685 110.601 156.281 112.368 157.925 C 113.714 159.17 115.094 160.351 116.524 161.501 C 118.405 163.015 120.18 164.611 121.946 166.254 C 123.292 167.5 124.673 168.68 126.103 169.83 C 127.984 171.344 129.758 172.94 131.525 174.584 C 132.87 175.829 134.251 177.009 135.681 178.16 C 137.563 179.673 139.337 181.269 141.103 182.912 C 142.45 184.158 143.83 185.339 145.26 186.489 C 147.141 188.003 148.915 189.598 150.683 191.242 C 152.027 192.488 153.409 193.667 154.838 194.818 C 156.72 196.332 158.495 197.928 160.26 199.572 C 161.607 200.817 162.987 201.997 164.416 203.147 C 166.298 204.661 168.073 206.257 169.839 207.901 C 171.185 209.146 172.566 210.326 173.996 211.477 C 175.877 212.99 177.652 214.586 179.418 216.231 C 180.764 217.475 182.145 218.655 183.574 219.806 C 185.456 221.32 187.231 222.915 188.997 224.56 C 190.334 225.798 191.706 226.968 193.127 228.108 C 195.117 229.71 196.98 231.411 198.843 233.156 C 200.598 234.79 202.425 236.306 204.295 237.806 C 205.549 238.846 206.746 239.936 207.937 241.045 C 209.492 242.493 211.071 243.878 212.726 245.21 C 214.608 246.724 216.383 248.319 218.148 249.964 C 219.495 251.209 220.875 252.388 222.305 253.539 C 224.187 255.053 225.962 256.649 227.728 258.294 C 229.074 259.538 230.455 260.718 231.884 261.868 C 233.765 263.382 235.54 264.978 237.306 266.622 C 239.004 268.192 240.778 269.65 242.583 271.096 C 244.136 272.392 245.609 273.769 247.06 275.178 C 248.514 276.634 248.514 276.634 250.417 277.07 C 251.462 276.451 251.462 276.451 252.499 275.508 C 252.903 275.162 253.306 274.816 253.722 274.46 C 255.21 273.141 256.673 271.796 258.128 270.442 C 259.831 268.868 261.611 267.408 263.418 265.955 C 264.677 264.909 265.878 263.816 267.075 262.701 C 268.986 260.923 270.963 259.263 272.996 257.626 C 274.254 256.58 275.456 255.486 276.654 254.373 C 278.564 252.594 280.541 250.933 282.575 249.297 C 283.834 248.25 285.035 247.158 286.232 246.043 C 288.143 244.265 290.12 242.604 292.154 240.967 C 293.413 239.922 294.614 238.828 295.811 237.714 C 297.722 235.936 299.698 234.274 301.732 232.638 C 302.991 231.592 304.192 230.499 305.389 229.385 C 307.3 227.606 309.277 225.945 311.311 224.309 C 312.79 223.078 314.193 221.776 315.601 220.465 C 316.939 219.227 318.311 218.057 319.731 216.916 C 321.474 215.514 323.124 214.046 324.755 212.518 C 326.738 210.661 328.78 208.92 330.9 207.219 C 332.153 206.179 333.351 205.089 334.541 203.98 C 336.453 202.202 338.429 200.541 340.463 198.904 C 341.722 197.859 342.923 196.765 344.12 195.652 C 346.031 193.873 348.008 192.211 350.042 190.576 C 351.301 189.529 352.502 188.437 353.699 187.322 C 355.61 185.544 357.587 183.883 359.62 182.246 C 360.879 181.201 362.08 180.107 363.278 178.993 C 365.188 177.214 367.165 175.553 369.2 173.917 C 370.459 172.871 371.659 171.778 372.856 170.664 C 374.768 168.885 376.745 167.223 378.778 165.588 C 380.036 164.541 381.238 163.448 382.435 162.334 C 384.345 160.556 386.322 158.895 388.356 157.258 C 389.615 156.212 390.816 155.118 392.014 154.004 C 393.924 152.227 395.902 150.565 397.936 148.93 C 399.194 147.882 400.395 146.789 401.592 145.675 C 403.525 143.877 405.524 142.189 407.578 140.529 C 409.237 139.176 410.881 137.795 412.42 136.306 C 412.42 136.168 412.42 136.03 412.42 135.889 C 305.223 135.889 198.025 135.889 87.579 135.889 Z M 66.756 141.303 C 66.04 142.01 66.04 142.01 65.325 142.943 C 65.076 143.246 64.827 143.551 64.572 143.864 C 62.915 146.554 62.406 149.284 62.434 152.402 C 62.432 152.747 62.43 153.09 62.428 153.445 C 62.423 154.591 62.426 155.739 62.431 156.887 C 62.43 157.719 62.426 158.553 62.424 159.386 C 62.417 161.672 62.419 163.958 62.423 166.243 C 62.425 168.709 62.419 171.176 62.415 173.643 C 62.408 178.193 62.408 182.746 62.409 187.297 C 62.412 191.502 62.412 195.707 62.408 199.913 C 62.408 200.478 62.408 201.042 62.408 201.606 C 62.408 202.456 62.407 203.307 62.406 204.158 C 62.402 212.064 62.399 219.969 62.403 227.876 C 62.403 228.174 62.403 228.472 62.404 228.778 C 62.404 231.199 62.406 233.617 62.407 236.036 C 62.411 245.473 62.408 254.91 62.397 264.347 C 62.387 274.953 62.382 285.558 62.384 296.165 C 62.385 297.295 62.385 298.426 62.385 299.557 C 62.385 299.837 62.385 300.115 62.386 300.402 C 62.387 304.604 62.383 308.805 62.378 313.007 C 62.372 317.785 62.371 322.565 62.378 327.345 C 62.382 329.782 62.382 332.22 62.376 334.659 C 62.371 336.893 62.373 339.124 62.381 341.357 C 62.382 342.165 62.381 342.972 62.377 343.778 C 62.348 349.571 62.84 354.507 66.756 359.113 C 70.199 362.393 74.057 364.16 78.815 364.163 C 79.316 364.165 79.817 364.165 80.334 364.167 C 80.89 364.166 81.446 364.165 82.002 364.165 C 82.595 364.165 83.189 364.166 83.782 364.168 C 85.419 364.17 87.057 364.169 88.695 364.169 C 90.473 364.169 92.252 364.171 94.03 364.172 C 97.563 364.175 101.094 364.176 104.624 364.176 C 108.853 364.177 113.081 364.18 117.31 364.182 C 127.531 364.19 137.752 364.192 147.974 364.193 C 152.807 364.194 157.641 364.195 162.476 364.197 C 179.019 364.203 195.562 364.208 212.106 364.209 C 213.144 364.209 214.184 364.209 215.221 364.209 C 216.264 364.209 217.304 364.209 218.346 364.209 C 220.435 364.21 222.524 364.21 224.613 364.211 C 225.39 364.211 225.39 364.211 226.183 364.211 C 242.98 364.212 259.777 364.218 276.574 364.228 C 294.329 364.238 312.083 364.244 329.836 364.244 C 331.785 364.245 333.733 364.245 335.681 364.245 C 336.161 364.245 336.642 364.245 337.135 364.245 C 344.861 364.245 352.586 364.25 360.313 364.255 C 368.075 364.262 375.839 364.263 383.602 364.26 C 388.215 364.258 392.829 364.259 397.442 364.267 C 400.523 364.271 403.605 364.27 406.686 364.266 C 408.442 364.263 410.198 364.263 411.954 364.268 C 413.552 364.273 415.152 364.272 416.751 364.267 C 417.594 364.265 418.436 364.27 419.278 364.275 C 424.692 364.243 429.205 363.376 433.23 359.591 C 436.353 356.27 437.473 352.733 437.463 348.254 C 437.464 347.911 437.465 347.568 437.465 347.214 C 437.469 346.056 437.468 344.899 437.467 343.741 C 437.468 342.906 437.47 342.07 437.47 341.235 C 437.473 338.934 437.474 336.632 437.474 334.331 C 437.475 331.851 437.478 329.371 437.482 326.892 C 437.488 321.182 437.491 315.475 437.491 309.766 C 437.493 306.946 437.494 304.126 437.495 301.305 C 437.501 291.651 437.506 281.996 437.508 272.341 C 437.508 271.735 437.508 271.129 437.508 270.523 C 437.508 269.916 437.508 269.308 437.508 268.701 C 437.508 267.481 437.508 266.262 437.508 265.043 C 437.508 264.742 437.508 264.439 437.508 264.128 C 437.511 254.328 437.516 244.528 437.526 234.728 C 437.536 224.369 437.542 214.008 437.542 203.649 C 437.542 202.511 437.543 201.373 437.543 200.236 C 437.543 199.817 437.543 199.817 437.543 199.387 C 437.543 194.881 437.548 190.375 437.554 185.868 C 437.56 181.338 437.561 176.809 437.558 172.278 C 437.556 169.825 437.556 167.37 437.563 164.916 C 437.568 162.67 437.568 160.423 437.563 158.177 C 437.562 157.365 437.563 156.551 437.567 155.738 C 437.572 154.634 437.568 153.528 437.563 152.422 C 437.567 152.108 437.569 151.793 437.573 151.468 C 437.542 148.271 436.703 145.414 434.624 142.943 C 434.363 142.628 434.105 142.314 433.837 141.991 C 433.641 141.764 433.446 141.536 433.243 141.303 C 431.386 141.894 430.192 142.912 428.818 144.244 C 427.207 145.766 425.576 147.226 423.847 148.617 C 422.278 149.88 420.773 151.183 419.292 152.547 C 417.811 153.911 416.305 155.216 414.737 156.478 C 413.073 157.819 411.485 159.213 409.922 160.668 C 408.002 162.455 406.016 164.127 403.972 165.771 C 402.798 166.744 401.673 167.756 400.551 168.789 C 399.07 170.152 397.564 171.457 395.996 172.719 C 394.333 174.062 392.745 175.455 391.181 176.911 C 389.261 178.697 387.276 180.369 385.231 182.013 C 384.057 182.985 382.933 183.998 381.81 185.031 C 379.959 186.736 378.043 188.332 376.084 189.911 C 374.506 191.221 373.009 192.611 371.501 194 C 370.392 194.996 369.255 195.939 368.093 196.874 C 366.43 198.215 364.841 199.61 363.278 201.065 C 361.358 202.851 359.372 204.523 357.328 206.168 C 356.153 207.14 355.029 208.152 353.907 209.186 C 352.426 210.549 350.921 211.854 349.353 213.116 C 347.688 214.459 346.1 215.852 344.537 217.307 C 342.617 219.094 340.631 220.766 338.587 222.41 C 337.413 223.382 336.288 224.395 335.166 225.428 C 333.314 227.133 331.399 228.727 329.441 230.308 C 327.861 231.617 326.366 233.008 324.857 234.397 C 323.748 235.393 322.611 236.335 321.449 237.271 C 319.786 238.612 318.198 240.007 316.634 241.462 C 314.714 243.248 312.729 244.92 310.685 246.564 C 309.51 247.537 308.386 248.549 307.263 249.583 C 305.782 250.946 304.277 252.251 302.708 253.513 C 301.045 254.855 299.457 256.249 297.893 257.704 C 295.973 259.49 293.987 261.162 291.944 262.807 C 290.768 263.779 289.645 264.791 288.522 265.825 C 286.67 267.53 284.755 269.124 282.796 270.705 C 281.219 272.014 279.722 273.405 278.213 274.793 C 277.104 275.79 275.967 276.733 274.806 277.668 C 273.141 279.01 271.553 280.404 269.99 281.859 C 268.07 283.645 266.085 285.317 264.041 286.961 C 262.867 287.934 261.741 288.946 260.62 289.98 C 258.746 291.704 256.81 293.328 254.829 294.929 C 253.324 296.156 251.866 297.433 250.417 298.726 C 246.711 297.075 243.68 293.72 240.732 291.006 C 239.622 290.009 238.486 289.066 237.324 288.131 C 235.436 286.608 233.652 285.005 231.877 283.353 C 230.165 281.77 228.376 280.3 226.56 278.838 C 224.986 277.535 223.494 276.148 221.991 274.765 C 220.882 273.767 219.744 272.825 218.583 271.889 C 216.695 270.366 214.911 268.762 213.136 267.111 C 211.425 265.528 209.635 264.058 207.818 262.596 C 206.644 261.623 205.519 260.611 204.397 259.578 C 202.908 258.207 201.393 256.893 199.816 255.622 C 197.835 254.023 195.961 252.333 194.088 250.609 C 192.979 249.613 191.842 248.669 190.681 247.735 C 188.791 246.212 187.008 244.607 185.233 242.955 C 183.521 241.372 181.733 239.903 179.916 238.441 C 178.341 237.139 176.851 235.751 175.347 234.367 C 174.238 233.37 173.101 232.428 171.94 231.492 C 170.051 229.969 168.267 228.365 166.492 226.714 C 164.78 225.131 162.992 223.661 161.175 222.199 C 160 221.226 158.875 220.214 157.754 219.181 C 156.263 217.81 154.748 216.497 153.173 215.225 C 151.192 213.626 149.318 211.936 147.444 210.212 C 146.335 209.216 145.198 208.273 144.037 207.338 C 142.148 205.815 140.364 204.211 138.589 202.559 C 136.878 200.975 135.089 199.507 133.272 198.044 C 131.697 196.742 130.207 195.354 128.704 193.97 C 127.594 192.974 126.457 192.031 125.296 191.096 C 123.406 189.572 121.623 187.968 119.848 186.317 C 118.137 184.734 116.348 183.264 114.531 181.802 C 113.356 180.829 112.231 179.818 111.11 178.785 C 109.619 177.413 108.105 176.099 106.528 174.829 C 104.547 173.229 102.673 171.539 100.801 169.816 C 99.691 168.82 98.554 167.876 97.392 166.941 C 95.505 165.418 93.72 163.814 91.945 162.162 C 90.233 160.579 88.445 159.11 86.628 157.647 C 85.453 156.675 84.329 155.662 83.206 154.63 C 81.355 152.925 79.44 151.33 77.482 149.751 C 76.293 148.764 75.155 147.736 74.019 146.691 C 70.757 143.195 70.757 143.195 66.756 141.303 Z" style="fill: rgb(255, 255, 255);"/>
</svg>