<?xml version="1.0" encoding="utf-8"?>
<svg viewBox="0 0 500 500" xmlns="http://www.w3.org/2000/svg">
  <g id="XMLID_240_" transform="matrix(1, 0, 0, 1, -389.685089111328, 590.6454467773438)">
    <path id="XMLID_241_" d="M 484.035 -457.384 L 795.337 -457.384 C 816.827 -457.384 834.249 -474.807 834.249 -496.296 C 834.249 -517.786 816.827 -535.209 795.337 -535.209 L 484.035 -535.209 C 462.545 -535.209 445.122 -517.786 445.122 -496.296 C 445.122 -474.807 462.545 -457.384 484.035 -457.384 Z" style="fill: rgb(41, 106, 148);"/>
    <path id="XMLID_242_" d="M 795.337 -379.558 L 484.035 -379.558 C 462.545 -379.558 445.122 -362.135 445.122 -340.645 C 445.122 -319.155 462.545 -301.733 484.035 -301.733 L 795.337 -301.733 C 816.827 -301.733 834.249 -319.155 834.249 -340.645 C 834.249 -362.135 816.827 -379.558 795.337 -379.558 Z" style="fill: rgb(41, 106, 148);"/>
    <path id="XMLID_243_" d="M 795.337 -223.907 L 484.035 -223.907 C 462.545 -223.907 445.122 -206.484 445.122 -184.994 C 445.122 -163.504 462.545 -146.082 484.035 -146.082 L 795.337 -146.082 C 816.827 -146.082 834.249 -163.504 834.249 -184.994 C 834.249 -206.484 816.827 -223.907 795.337 -223.907 Z" style="fill: rgb(41, 106, 148);"/>
  </g>
</svg>